<svg width="224" height="34" viewBox="0 0 224 34" fill="none" xmlns="http://www.w3.org/2000/svg">
<path d="M11.0742 23.0586L10.4102 25.832L3.73047 0.65625H5.17578L11.0742 23.0586ZM12.5391 17.6484L11.8164 20.3438L6.64062 0.65625H8.06641L12.5391 17.6484ZM14.0039 12.043L13.2617 14.7773L9.53125 0.65625H10.9961L14.0039 12.043ZM19.5703 33H18.1055L26.6602 0.695312L26.6406 0.65625H28.125V0.695312L31.9336 13.8203L35.4297 0.65625H36.8945L28.3203 33H26.8555L23.0273 19.8945L19.5703 33ZM16.6406 33H15.1953L23.75 0.65625H25.1953L16.6406 33ZM13.7305 33H12.2852L20.8594 0.65625H22.2852L13.7305 33ZM37.0703 33H35.6055L44.1602 0.65625H45.625L37.0703 33ZM34.1406 33H32.6953L41.25 0.65625H42.6953L34.1406 33ZM31.2305 33H29.7852L38.3594 0.65625H39.7852L31.2305 33ZM10.0977 30.2266L17.9297 0.65625H19.3945L10.8203 33H9.35547L0.800781 0.65625H2.26562L10.0977 30.2266ZM23.7695 17.1406L27.5586 30.3438L28.3008 27.5508L24.4922 14.3867L23.7695 17.1406ZM25.2148 11.6328L29.0234 24.7969L29.7656 22.043L25.957 8.85938L25.2148 11.6328ZM26.6602 6.16406L30.4883 19.3281L31.2109 16.5547L27.4219 3.35156L26.6602 6.16406ZM56.7383 4.875H58.1445V33H56.7383V4.875ZM53.9258 4.875H55.332V33H53.9258V4.875ZM51.1133 4.875H52.5195V33H51.1133V4.875ZM48.3008 4.875H49.707V33H48.3008V4.875ZM84.0039 21.6523L82.5977 19.0938V4.875H84.0039V21.6523ZM86.8164 26.5156L85.4102 24.1328V4.875H86.8164V26.5156ZM67.4414 16.2227L68.8477 18.7812V33H67.4414V16.2227ZM64.6289 11.1641L66.0352 13.7422V33H64.6289V11.1641ZM65.1172 4.875H66.7578L83.0469 33H81.4062L65.1172 4.875ZM68.4375 4.875H70.0977L86.3672 33H84.6875L68.4375 4.875ZM71.7383 4.875H73.3789L88.2227 30.5586V4.875H89.6289V33H87.9688L71.7383 4.875ZM63.2227 7.29688V33H61.8164V4.875H63.4961L79.7266 33H78.1055L63.2227 7.29688ZM115.488 21.6523L114.082 19.0938V4.875H115.488V21.6523ZM118.301 26.5156L116.895 24.1328V4.875H118.301V26.5156ZM98.9258 16.2227L100.332 18.7812V33H98.9258V16.2227ZM96.1133 11.1641L97.5195 13.7422V33H96.1133V11.1641ZM96.6016 4.875H98.2422L114.531 33H112.891L96.6016 4.875ZM99.9219 4.875H101.582L117.852 33H116.172L99.9219 4.875ZM103.223 4.875H104.863L119.707 30.5586V4.875H121.113V33H119.453L103.223 4.875ZM94.707 7.29688V33H93.3008V4.875H94.9805L111.211 33H109.59L94.707 7.29688ZM133.223 4.875H134.629V33H133.223V4.875ZM130.41 4.875H131.816V33H130.41V4.875ZM127.598 4.875H129.004V33H127.598V4.875ZM124.785 4.875H126.191V33H124.785V4.875ZM143.281 12.668H144.688V33H143.281V12.668ZM137.656 6.28125V4.875H158.75V6.28125H137.656ZM137.656 9.09375V7.6875H158.75V9.09375H137.656ZM137.656 11.9062V10.5H158.75V11.9062H137.656ZM151.719 12.668H153.125V33H151.719V12.668ZM148.906 12.668H150.312V33H148.906V12.668ZM146.094 12.668H147.5V33H146.094V12.668ZM181.816 19.1328C181.816 17.4661 181.302 16.1771 180.273 15.2656C179.245 14.3542 177.884 13.8984 176.191 13.8984C174.759 13.8984 173.529 14.3932 172.5 15.3828C171.471 16.3724 170.957 17.5573 170.957 18.9375C170.957 19.7188 171.061 20.4219 171.27 21.0469C171.478 21.6589 171.758 22.1732 172.109 22.5898C172.474 22.9935 172.904 23.332 173.398 23.6055C173.893 23.8659 174.408 24.0547 174.941 24.1719C175.488 24.2891 176.068 24.3477 176.68 24.3477C178.164 24.3477 179.518 23.9831 180.742 23.2539V24.6602C179.479 25.3242 178.118 25.6562 176.66 25.6562C175.723 25.6562 174.837 25.5326 174.004 25.2852C173.184 25.0247 172.435 24.6406 171.758 24.1328C171.081 23.612 170.54 22.9089 170.137 22.0234C169.746 21.125 169.551 20.0964 169.551 18.9375C169.551 17.1406 170.182 15.6172 171.445 14.3672C172.708 13.1172 174.29 12.4922 176.191 12.4922C178.288 12.4922 179.98 13.0846 181.27 14.2695C182.572 15.4414 183.223 17.0625 183.223 19.1328V33H181.816V19.1328ZM186.035 19.1328V33H184.629V19.1328C184.629 16.6719 183.841 14.7188 182.266 13.2734C180.69 11.8151 178.665 11.0859 176.191 11.0859C173.9 11.0859 171.986 11.8477 170.449 13.3711C168.913 14.8945 168.145 16.75 168.145 18.9375C168.145 20.2656 168.372 21.457 168.828 22.5117C169.297 23.5664 169.928 24.4128 170.723 25.0508C171.517 25.6888 172.402 26.1771 173.379 26.5156C174.368 26.8411 175.41 27.0039 176.504 27.0039C177.988 27.0039 179.401 26.6589 180.742 25.9688V27.4531C179.336 28.0391 177.917 28.332 176.484 28.332C175.195 28.332 173.971 28.1367 172.812 27.7461C171.654 27.3424 170.618 26.763 169.707 26.0078C168.796 25.2396 168.073 24.25 167.539 23.0391C167.005 21.8151 166.738 20.4479 166.738 18.9375C166.738 16.3724 167.643 14.1914 169.453 12.3945C171.276 10.5846 173.522 9.67969 176.191 9.67969C178.066 9.67969 179.746 10.0638 181.23 10.832C182.715 11.5872 183.887 12.6875 184.746 14.1328C185.605 15.5781 186.035 17.2448 186.035 19.1328ZM188.848 19.1328V33H187.441V19.1328C187.441 16.9844 186.947 15.0833 185.957 13.4297C184.98 11.763 183.639 10.487 181.934 9.60156C180.228 8.71615 178.314 8.27344 176.191 8.27344C174.173 8.27344 172.331 8.75521 170.664 9.71875C168.997 10.6693 167.689 11.9583 166.738 13.5859C165.801 15.2135 165.332 16.9974 165.332 18.9375C165.332 20.6042 165.638 22.1276 166.25 23.5078C166.862 24.875 167.682 26.0013 168.711 26.8867C169.753 27.7721 170.931 28.4622 172.246 28.957C173.574 29.4388 174.961 29.6797 176.406 29.6797C177.878 29.6797 179.323 29.3737 180.742 28.7617V30.1875C179.258 30.7474 177.799 31.0273 176.367 31.0273C174.115 31.0273 172.044 30.5195 170.156 29.5039C168.268 28.4883 166.758 27.0495 165.625 25.1875C164.492 23.3255 163.926 21.2422 163.926 18.9375C163.926 17.2969 164.238 15.7344 164.863 14.25C165.501 12.7656 166.361 11.4831 167.441 10.4023C168.522 9.32161 169.824 8.46224 171.348 7.82422C172.871 7.1862 174.486 6.86719 176.191 6.86719C178.574 6.86719 180.723 7.375 182.637 8.39062C184.564 9.40625 186.081 10.8516 187.188 12.7266C188.294 14.6016 188.848 16.737 188.848 19.1328ZM191.66 19.1328V33H190.254V19.1328C190.254 16.4766 189.635 14.1068 188.398 12.0234C187.161 9.92708 185.475 8.3125 183.34 7.17969C181.204 6.03385 178.822 5.46094 176.191 5.46094C173.665 5.46094 171.354 6.06641 169.258 7.27734C167.161 8.48828 165.514 10.1289 164.316 12.1992C163.118 14.2565 162.52 16.5026 162.52 18.9375C162.52 20.5391 162.773 22.0625 163.281 23.5078C163.802 24.9401 164.505 26.1966 165.391 27.2773C166.289 28.3451 167.318 29.2695 168.477 30.0508C169.648 30.832 170.905 31.4245 172.246 31.8281C173.6 32.2318 174.974 32.4336 176.367 32.4336C177.904 32.4336 179.362 32.1406 180.742 31.5547V33C179.297 33.5078 177.812 33.7617 176.289 33.7617C174.714 33.7617 173.177 33.5404 171.68 33.0977C170.195 32.6549 168.815 32.0039 167.539 31.1445C166.276 30.2721 165.163 29.25 164.199 28.0781C163.236 26.8932 162.48 25.513 161.934 23.9375C161.387 22.362 161.113 20.6953 161.113 18.9375C161.113 16.9193 161.491 14.9987 162.246 13.1758C163.014 11.3398 164.056 9.75781 165.371 8.42969C166.699 7.08854 168.301 6.02734 170.176 5.24609C172.064 4.45182 174.069 4.05469 176.191 4.05469C178.353 4.05469 180.384 4.41927 182.285 5.14844C184.186 5.8776 185.827 6.89323 187.207 8.19531C188.587 9.48438 189.674 11.0729 190.469 12.9609C191.263 14.849 191.66 16.9062 191.66 19.1328ZM206.055 19.7578H212.012C213.184 19.7578 214.18 19.4062 215 18.7031C215.82 18 216.23 17.0104 216.23 15.7344C216.23 14.7448 215.801 13.8594 214.941 13.0781C214.082 12.2969 213.105 11.9062 212.012 11.9062H202.168V33H200.762V10.5H212.012C213.509 10.5 214.818 11.0273 215.938 12.082C217.07 13.1367 217.637 14.3542 217.637 15.7344C217.637 17.388 217.09 18.7096 215.996 19.6992C214.902 20.6758 213.574 21.1641 212.012 21.1641H206.055V19.7578ZM206.055 22.5703H212.012C213.939 22.5703 215.592 21.9323 216.973 20.6562C218.353 19.3802 219.043 17.7396 219.043 15.7344C219.043 13.9766 218.34 12.4336 216.934 11.1055C215.527 9.76432 213.887 9.09375 212.012 9.09375H199.355V33H197.949V7.6875H212.012C214.277 7.6875 216.25 8.49479 217.93 10.1094C219.609 11.7109 220.449 13.5859 220.449 15.7344C220.449 18.0781 219.616 20.0378 217.949 21.6133C216.296 23.1888 214.316 23.9766 212.012 23.9766H206.055V22.5703ZM206.055 25.3828H212.012C213.77 25.3828 215.397 24.9661 216.895 24.1328C218.405 23.2995 219.609 22.1406 220.508 20.6562C221.406 19.1719 221.855 17.5312 221.855 15.7344C221.855 14.0807 221.406 12.5247 220.508 11.0664C219.622 9.60807 218.418 8.44922 216.895 7.58984C215.384 6.71745 213.757 6.28125 212.012 6.28125H196.543V33H195.137V4.875H212.012C213.496 4.875 214.928 5.16797 216.309 5.75391C217.702 6.33984 218.906 7.1276 219.922 8.11719C220.938 9.09375 221.745 10.2526 222.344 11.5938C222.956 12.9219 223.262 14.3021 223.262 15.7344C223.262 17.4141 222.962 18.957 222.363 20.3633C221.764 21.7695 220.951 22.9414 219.922 23.8789C218.893 24.8034 217.695 25.5195 216.328 26.0273C214.974 26.5352 213.535 26.7891 212.012 26.7891H206.055V25.3828ZM204.98 33H203.574V13.3125H212.012C212.78 13.3125 213.438 13.5534 213.984 14.0352C214.544 14.5039 214.824 15.0703 214.824 15.7344C214.824 17.4792 213.887 18.3516 212.012 18.3516H206.055V16.9453H212.012C212.949 16.9453 213.418 16.5417 213.418 15.7344C213.418 15.4479 213.281 15.207 213.008 15.0117C212.734 14.8164 212.402 14.7188 212.012 14.7188H204.98V33Z" fill="white"/>
</svg>
