<svg width="50" height="43" viewBox="0 0 50 43" fill="none" xmlns="http://www.w3.org/2000/svg">
<g clip-path="url(#clip0)">
<path d="M45.76 30H40.72V18.64H31.96V30H26.88V2.76H31.96V14.08H40.72V2.76H45.76V30Z" fill="white"/>
<path d="M4.13375 2.76H16.5738C17.4538 2.76 18.2804 2.94666 19.0538 3.32C19.8538 3.69333 20.5471 4.21333 21.1338 4.88C21.7204 5.54667 22.1738 6.32 22.4938 7.2C22.8404 8.05333 23.0138 8.97333 23.0138 9.96V22.8C23.0138 23.8133 22.8404 24.7467 22.4938 25.6C22.1738 26.4533 21.7204 27.2133 21.1338 27.88C20.5471 28.5467 19.8538 29.0667 19.0538 29.44C18.2804 29.8133 17.4538 30 16.5738 30H4.13375V2.76ZM15.3338 24.96C15.7338 24.96 16.0938 24.88 16.4138 24.72C16.7338 24.56 17.0138 24.3467 17.2538 24.08C17.5204 23.8133 17.7204 23.5067 17.8538 23.16C17.9871 22.7867 18.0538 22.3867 18.0538 21.96V10.76C18.0538 10.36 17.9871 9.98667 17.8538 9.64C17.7204 9.26667 17.5204 8.94667 17.2538 8.68C17.0138 8.38667 16.7338 8.16 16.4138 8C16.0938 7.84 15.7338 7.76 15.3338 7.76H9.13375V24.96H15.3338Z" fill="white"/>
</g>
<defs>
<clipPath id="clip0">
<rect width="50" height="43" fill="white"/>
</clipPath>
</defs>
</svg>
