<svg width="24" height="24" viewBox="0 0 24 24" fill="none" xmlns="http://www.w3.org/2000/svg">
<path d="M17.8563 19.8381H6.09955C5.7324 19.8381 5.43237 20.1342 5.43237 20.5053C5.43237 20.8724 5.72849 21.1725 6.09955 21.1725H17.8603C18.2274 21.1725 18.5275 20.8763 18.5275 20.5053C18.5235 20.1342 18.2274 19.8381 17.8563 19.8381Z" fill="white"/>
<path d="M17.8563 16.9166H6.09955C5.7324 16.9166 5.43237 17.2127 5.43237 17.5838C5.43237 17.951 5.72849 18.251 6.09955 18.251H17.8603C18.2274 18.251 18.5275 17.9549 18.5275 17.5838C18.5235 17.2128 18.2274 16.9166 17.8563 16.9166Z" fill="white"/>
<path d="M11.9778 2.79902C10.3986 2.79902 9.10767 4.08605 9.10767 5.66913C9.10767 7.24831 10.3986 8.53527 11.9778 8.53527C13.5569 8.53527 14.8479 7.24824 14.8479 5.66516C14.8479 4.08208 13.5569 2.79902 11.9778 2.79902ZM11.9778 7.19701C11.1369 7.19701 10.446 6.50614 10.446 5.66522C10.446 4.8243 11.1329 4.13343 11.9778 4.13343C12.8227 4.13343 13.5096 4.8243 13.5096 5.66522C13.5096 6.50608 12.8187 7.19701 11.9778 7.19701Z" fill="white"/>
<path d="M15.7874 9.97631C13.3516 9.02882 10.6117 9.02882 8.17594 9.97631C7.37844 10.2882 6.8455 11.0817 6.8455 11.9542V14.6624C6.84153 15.0296 7.14162 15.3296 7.50877 15.3296H16.4507C16.8178 15.3296 17.1179 15.0335 17.1179 14.6624V11.9542C17.1179 11.0817 16.5849 10.2882 15.7874 9.97631ZM15.7874 13.9991H8.17594V11.9581C8.17594 11.6344 8.36941 11.3344 8.65759 11.2238C10.7855 10.3987 13.1779 10.3987 15.3058 11.2238C15.594 11.3383 15.7875 11.6305 15.7875 11.9581V13.9991H15.7874Z" fill="white"/>
<path d="M19.1196 0H8.02997C7.51675 0 7.0351 0.197374 6.67192 0.560611L3.482 3.75047C3.11882 4.11371 2.92139 4.5953 2.92139 5.10852V22.0449C2.92139 23.1069 3.786 23.9714 4.84792 23.9714H19.1235C20.1854 23.9714 21.05 23.1068 21.05 22.0449V1.92653C21.0382 0.864611 20.1736 0 19.1196 0ZM6.84163 2.27395V3.92415H5.19143L6.84163 2.27395ZM19.7078 7.1338H17.2285C16.8614 7.1338 16.5613 7.42992 16.5613 7.80098C16.5613 8.16812 16.8574 8.46815 17.2285 8.46815H19.7078V9.65252H18.7997C18.4326 9.65252 18.1326 9.94858 18.1326 10.3197C18.1326 10.6868 18.4287 10.9869 18.7997 10.9869H19.7078V22.0488C19.7078 22.3765 19.4433 22.641 19.1196 22.641H4.83613C4.51241 22.641 4.24792 22.3765 4.24792 22.0528V5.2546H7.50887C7.87601 5.2546 8.17604 4.95853 8.17604 4.58742V1.32647H19.1196C19.4433 1.32647 19.7078 1.59096 19.7078 1.91469V7.1338Z" fill="white"/>
</svg>
