<svg width="48" height="48" viewBox="0 0 1500 2166"><g transform="matrix(1,0,0,1,-1.5010473811555585,0.8769230769230489)"><svg viewBox="0 0 171 247" data-background-color="#2d1b81" preserveAspectRatio="xMidYMid meet" height="2166" width="1500" xmlns="http://www.w3.org/2000/svg" xmlns:xlink="http://www.w3.org/1999/xlink"><g id="tight-bounds" transform="matrix(1,0,0,1,0.1711194014517332,-0.09999999999999432)"><svg viewBox="0 0 170.6577611970965 247.2" height="247.2" width="170.6577611970965"><g><svg viewBox="0 0 397.4975999999999 575.7804745048521" height="247.2" width="170.6577611970965"><g><rect width="397.4975999999999" height="20.033980682056438" x="0" y="281.14858607703394" fill="#ffabc7" opacity="1" stroke-width="0" stroke="transparent" fill-opacity="1" class="rect-qz-0" data-fill-palette-color="secondary" rx="1%" id="qz-0" data-palette-color="#ffabc7"></rect></g><g transform="matrix(1,0,0,1,0.9887999999999693,353.627542366568)"><svg viewBox="0 0 395.52 222.1529321382842" height="222.1529321382842" width="395.52"><g id="textblocktransform"><svg viewBox="0 0 395.52 222.1529321382842" height="222.1529321382842" width="395.52" id="textblock"><g><svg viewBox="0 0 395.52 222.1529321382842" height="222.1529321382842" width="395.52"><g transform="matrix(1,0,0,1,0,0)"><svg width="395.52" viewBox="4.58 -33.27 59.22 33.27" height="222.1529321382842" data-palette-color="#ffabc7"><path d="M26.82-28.97Q31.12-24.67 31.12-16.68 31.12-8.7 26.66-4.35 22.19 0 13.78 0L13.78 0 4.58 0 4.58-33.27 14.76-33.27Q22.52-33.27 26.82-28.97ZM8.44-3.34L13.14-3.34Q20.05-3.34 23.53-6.74 27.02-10.14 27.02-16.72 27.02-23.31 23.76-26.61 20.5-29.9 14.05-29.9L14.05-29.9 8.44-29.9 8.44-3.34ZM59.93-33.27L63.8-33.27 63.8 0 59.93 0 59.93-15.65 42.41-15.65 42.41 0 38.55 0 38.55-33.27 42.41-33.27 42.41-19.11 59.93-19.11 59.93-33.27Z" opacity="1" transform="matrix(1,0,0,1,0,0)" fill="#ffabc7" class="wordmark-text-0" data-fill-palette-color="primary" id="text-0"></path></svg></g></svg></g></svg></g></svg></g><g transform="matrix(1,0,0,1,76.53311999999995,0)"><svg viewBox="0 0 244.43136 228.70361046955634" height="228.70361046955634" width="244.43136"><g><svg xmlns="http://www.w3.org/2000/svg" xmlns:xlink="http://www.w3.org/1999/xlink" version="1.1" x="8" y="0" viewBox="6.789 6.738 86.42200000000001 86.525" enable-background="new 0 0 100 100" xml:space="preserve" height="228.70361046955634" width="228.43136" class="icon-icon-0" data-fill-palette-color="accent" id="icon-0"><g fill="#ffabc7" data-fill-palette-color="accent"><path fill="none" d="M70.094 26.971H30.005c-1.813 0-3.288 1.475-3.288 3.287v40.088c0 1.814 1.475 3.288 3.288 3.288h40.088c1.813 0 3.288-1.474 3.288-3.288V30.258C73.382 28.445 71.906 26.971 70.094 26.971zM60.143 55.274c0 2.544-2.063 4.607-4.607 4.607H44.564c-2.544 0-4.607-2.063-4.607-4.607v-9.943c0-2.545 2.063-4.607 4.607-4.607h10.971c2.545 0 4.607 2.063 4.607 4.607V55.274z"></path><path d="M70.094 25.818H30.005c-2.448 0-4.439 1.992-4.439 4.439v40.088c0 2.449 1.991 4.44 4.439 4.44h40.088c2.448 0 4.439-1.991 4.439-4.44V30.258C74.533 27.811 72.542 25.818 70.094 25.818zM73.382 70.346c0 1.814-1.476 3.288-3.288 3.288H30.005c-1.813 0-3.288-1.474-3.288-3.288V30.258c0-1.813 1.475-3.287 3.288-3.287h40.088c1.813 0 3.288 1.475 3.288 3.287V70.346z" fill="#ffabc7" data-fill-palette-color="accent"></path><path d="M55.535 40.724H44.564c-2.544 0-4.607 2.063-4.607 4.607v9.943c0 2.544 2.063 4.607 4.607 4.607h10.971c2.545 0 4.607-2.063 4.607-4.607v-9.943C60.143 42.786 58.08 40.724 55.535 40.724z" fill="#ffabc7" data-fill-palette-color="accent"></path><circle cx="42.137" cy="20.9" r="3.0" fill="#ffabc7" data-fill-palette-color="accent"></circle><circle cx="34.494" cy="20.9" r="3.0" fill="#ffabc7" data-fill-palette-color="accent"></circle><circle cx="49.869" cy="20.9" r="3.0" fill="#ffabc7" data-fill-palette-color="accent"></circle><circle cx="57.692" cy="20.9" r="3.0" fill="#ffabc7" data-fill-palette-color="accent"></circle><polygon points="35.033,10.649 41.688,10.649 41.688,6.738 40.608,6.738 40.608,9.571 33.954,9.571 33.954,17.933 34.494,17.933    35.033,17.933  " fill="#ffabc7" data-fill-palette-color="accent"></polygon><polygon points="41.598,17.933 42.137,17.933 42.677,17.933 42.677,15.235 46.093,15.235 46.093,6.738 45.015,6.738 45.015,14.156    41.598,14.156  " fill="#ffabc7" data-fill-palette-color="accent"></polygon><polygon points="50.409,6.738 49.33,6.738 49.33,17.933 49.869,17.933 50.409,17.933  " fill="#ffabc7" data-fill-palette-color="accent"></polygon><path d="M58.231 13.482h6.834v4.505c-1.38 0.254-2.428 1.459-2.428 2.913 0 1.639 1.329 2.967 2.968 2.967 1.638 0 2.967-1.328 2.967-2.967 0-1.454-1.047-2.659-2.428-2.913V6.738h-1.079v5.665h-7.913v5.529h0.54 0.539V13.482z" fill="#ffabc7" data-fill-palette-color="accent"></path><circle cx="79.048" cy="42.39" r="3.0" fill="#ffabc7" data-fill-palette-color="accent"></circle><circle cx="79.048" cy="34.747" r="3.0" fill="#ffabc7" data-fill-palette-color="accent"></circle><circle cx="79.048" cy="50.123" r="3.0" fill="#ffabc7" data-fill-palette-color="accent"></circle><circle cx="79.048" cy="57.945" r="3.0" fill="#ffabc7" data-fill-palette-color="accent"></circle><polygon points="90.379,40.861 90.379,34.207 82.016,34.207 82.016,34.747 82.016,35.286 89.3,35.286 89.3,41.94 93.211,41.94    93.211,40.861  " fill="#ffabc7" data-fill-palette-color="accent"></polygon><polygon points="85.793,41.851 82.016,41.851 82.016,42.391 82.016,42.93 84.714,42.93 84.714,46.347 93.211,46.347 93.211,45.268    85.793,45.268  " fill="#ffabc7" data-fill-palette-color="accent"></polygon><polygon points="82.016,50.122 82.016,50.662 93.211,50.662 93.211,49.583 82.016,49.583  " fill="#ffabc7" data-fill-palette-color="accent"></polygon><path d="M87.546 57.405h-5.53v0.54 0.539h4.451v6.834h-4.505c-0.254-1.38-1.46-2.427-2.914-2.427-1.637 0-2.967 1.328-2.967 2.967s1.33 2.967 2.967 2.967c1.454 0 2.66-1.047 2.914-2.428h11.249v-1.079h-5.665V57.405z" fill="#ffabc7" data-fill-palette-color="accent"></path><circle cx="57.961" cy="79.1" r="3.0" fill="#ffabc7" data-fill-palette-color="accent"></circle><circle cx="65.605" cy="79.1" r="3.0" fill="#ffabc7" data-fill-palette-color="accent"></circle><circle cx="50.23" cy="79.1" r="3.0" fill="#ffabc7" data-fill-palette-color="accent"></circle><circle cx="42.407" cy="79.1" r="3.0" fill="#ffabc7" data-fill-palette-color="accent"></circle><path d="M34.494 76.133c-1.638 0-2.967 1.33-2.967 2.967 0 1.511 1.132 2.744 2.591 2.93h-0.54v3.521h-7.896v7.712h1.079v-6.633h7.896v-4.577c1.561-0.087 2.804-1.369 2.804-2.952C37.461 77.463 36.132 76.133 34.494 76.133z" fill="#ffabc7" data-fill-palette-color="accent"></path><polygon points="65.065,89.351 58.411,89.351 58.411,93.262 59.49,93.262 59.49,90.43 66.145,90.43 66.145,82.067 65.605,82.067    65.065,82.067  " fill="#ffabc7" data-fill-palette-color="accent"></polygon><polygon points="42.047,84.739 38.63,84.739 38.63,93.152 39.709,93.152 39.709,85.807 43.125,85.807 43.125,82.067 42.407,82.067    42.047,82.067  " fill="#ffabc7" data-fill-palette-color="accent"></polygon><polygon points="58.501,82.067 57.962,82.067 57.422,82.067 57.422,85.19 50.77,85.19 50.77,82.067 50.229,82.067 49.69,82.067    49.69,93.262 50.77,93.262 50.77,86.27 58.501,86.27  " fill="#ffabc7" data-fill-palette-color="accent"></polygon><circle cx="20.951" cy="58.716" r="3.0" fill="#ffabc7" data-fill-palette-color="accent"></circle><path d="M20.951 63.393c-1.583 0-2.864 1.242-2.951 2.804H6.899v1.079h11.122v-0.539c0.187 1.458 1.419 2.591 2.929 2.591 1.639 0 2.967-1.329 2.967-2.967C23.918 64.722 22.589 63.393 20.951 63.393z" fill="#ffabc7" data-fill-palette-color="accent"></path><circle cx="20.951" cy="50.984" r="3.0" fill="#ffabc7" data-fill-palette-color="accent"></circle><polygon points="10.7,50.715 10.7,44.061 6.789,44.061 6.789,45.14 9.622,45.14 9.622,51.793 17.983,51.793 17.983,50.984    17.983,50.715  " fill="#ffabc7" data-fill-palette-color="accent"></polygon><path d="M18.021 35.967v-0.343c0.187 1.459 1.419 2.592 2.929 2.592 1.639 0 2.967-1.329 2.967-2.968s-1.329-2.967-2.967-2.967c-1.515 0-2.75 1.14-2.931 2.606h-4.598v7.896H6.789v1.078h6.935v0.034h4.362c0.328 1.282 1.481 2.233 2.864 2.233 1.639 0 2.967-1.329 2.967-2.968 0-1.638-1.329-2.967-2.967-2.967-1.521 0-2.76 1.148-2.933 2.623h-3.517v-6.851H18.021z" fill="#ffabc7" data-fill-palette-color="accent"></path><polygon points="9.048,58.177 9.048,64.741 6.899,64.741 6.899,65.82 10.127,65.82 10.127,59.256 17.983,59.256 17.983,58.717    17.983,58.177  " fill="#ffabc7" data-fill-palette-color="accent"></polygon></g></svg></g></svg></g><g></g></svg></g><defs></defs></svg><rect width="170.6577611970965" height="247.2" fill="none" stroke="none" visibility="hidden"></rect></g></svg></g></svg>