<svg width="50" height="43" viewBox="0 0 50 43" fill="none" xmlns="http://www.w3.org/2000/svg">
<g clip-path="url(#clip0)">
<path d="M46.4707 18.9062H47.5254V40H46.4707V18.9062ZM25.3623 18.9062H26.417V40H25.3623V18.9062ZM44.3613 18.9062H45.416V40H44.3613V18.9062ZM42.252 18.9062H43.3066V40H42.252V18.9062ZM40.1426 18.9062H41.1973V40H40.1426V31.5625H32.7451V40H31.6904V18.9062H32.7451V26.2891H40.1426V18.9062ZM29.5811 18.9062H30.6357V40H29.5811V18.9062ZM27.4717 18.9062H28.5264V40H27.4717V18.9062ZM40.1426 30.5078V29.4531H32.7451V30.5078H40.1426ZM40.1426 28.3984V27.3438H32.7451V28.3984H40.1426Z" fill="white"/>
<path d="M9.69531 17.6719V9.23438C9.69531 9.23438 11.6436 9.23438 15.54 9.23438C16.624 9.23438 17.5518 9.64453 18.3232 10.4648C19.1045 11.2852 19.4951 12.2715 19.4951 13.4238C19.4951 14.6152 19.1094 15.6211 18.3379 16.4414C17.5664 17.2617 16.6338 17.6719 15.54 17.6719H9.69531ZM10.75 16.6172H15.54C16.3311 16.6172 17.0049 16.3096 17.5615 15.6943C18.1279 15.0791 18.4111 14.3223 18.4111 13.4238C18.4111 12.5645 18.1279 11.8271 17.5615 11.2119C17.0049 10.5967 16.3311 10.2891 15.54 10.2891H10.75V16.6172ZM8.64062 18.7266H15.54C16.9268 18.7266 18.1133 18.2139 19.0996 17.1885C20.0859 16.1533 20.5791 14.8984 20.5791 13.4238C20.5791 11.9785 20.0811 10.7432 19.085 9.71777C18.0986 8.69238 16.917 8.17969 15.54 8.17969H8.64062V18.7266ZM7.58594 19.7812V7.125H15.54C17.21 7.125 18.6455 7.74512 19.8467 8.98535C21.0576 10.2158 21.6631 11.6953 21.6631 13.4238C21.6631 15.1914 21.0625 16.6953 19.8613 17.9355C18.6602 19.166 17.2197 19.7812 15.54 19.7812H7.58594ZM6.53125 20.8359H15.54C16.8291 20.8359 18.0254 20.5088 19.1289 19.8545C20.2324 19.2002 21.1113 18.3018 21.7656 17.1592C22.4199 16.0166 22.7471 14.7715 22.7471 13.4238C22.7471 12.1055 22.4199 10.8799 21.7656 9.74707C21.1113 8.61426 20.2275 7.7207 19.1143 7.06641C18.0107 6.40234 16.8193 6.07031 15.54 6.07031H6.53125V20.8359ZM5.47656 21.8906V5.01562H15.54C17.0146 5.01562 18.3867 5.3916 19.6562 6.14355C20.9355 6.89551 21.9512 7.9209 22.7031 9.21973C23.4551 10.5088 23.8311 11.9102 23.8311 13.4238C23.8311 14.957 23.4551 16.3779 22.7031 17.6865C21.9512 18.9854 20.9355 20.0107 19.6562 20.7627C18.3867 21.5146 17.0146 21.8906 15.54 21.8906H5.47656ZM4.42188 22.9453H15.54C17.21 22.9453 18.7627 22.5254 20.1982 21.6855C21.6338 20.8359 22.7764 19.6787 23.626 18.2139C24.4854 16.749 24.915 15.1523 24.915 13.4238C24.915 11.7246 24.4854 10.1475 23.626 8.69238C22.7764 7.22754 21.6289 6.0752 20.1836 5.23535C18.748 4.38574 17.2002 3.96094 15.54 3.96094H4.42188V22.9453ZM15.54 24H3.36719V2.90625H15.54C17.3955 2.90625 19.124 3.37988 20.7256 4.32715C22.3369 5.26465 23.6162 6.54395 24.5635 8.16504C25.5205 9.77637 25.999 11.5293 25.999 13.4238C25.999 14.8594 25.7158 16.2314 25.1494 17.54C24.5928 18.8486 23.8408 19.9766 22.8936 20.9238C21.9561 21.8613 20.8428 22.6084 19.5537 23.165C18.2646 23.7217 16.9268 24 15.54 24Z" fill="white"/>
</g>
<rect x="1" y="1" width="48" height="41" stroke="white" stroke-width="2"/>
<defs>
<clipPath id="clip0">
</clipPath>
</defs>
</svg>
