<svg id="backup" xmlns="http://www.w3.org/2000/svg" viewBox="0 0 262.11 326.3"><path d="M68.75,119V73.14H173.63V29.2H226V73.14H330.86V119ZM199.61,268.65q-45.71,0-74.41-18.55T96.48,200.29q0-30.66,27.35-49.51T200,131.93q46.09,0,74.41,19.44t28.32,48.92q0,31.65-28.22,50T199.61,268.65Zm0-91.21q-50.79,0-50.78,22.85,0,9.57,12.89,15.82t37.89,6.25q50.77,0,50.78-22.07Q250.39,177.45,199.61,177.44Z" transform="translate(-68.75 -29.2)"/><path d="M167,325.62a27,27,0,0,1,9.87-21.49,34.87,34.87,0,0,1,23.34-8.4,33.78,33.78,0,0,1,23,8.4,27.32,27.32,0,0,1,9.57,21.49q0,13.28-9.57,21.58t-23.83,8.3a33,33,0,0,1-22.95-8.59A27.61,27.61,0,0,1,167,325.62Z" transform="translate(-68.75 -29.2)"/></svg>