<svg width="50" height="43" viewBox="0 0 50 43" fill="none" xmlns="http://www.w3.org/2000/svg">
<g clip-path="url(#clip0)">
<path d="M46.4707 19.9062H47.5254V41H46.4707V19.9062ZM25.3623 19.9062H26.417V41H25.3623V19.9062ZM44.3613 19.9062H45.416V41H44.3613V19.9062ZM42.252 19.9062H43.3066V41H42.252V19.9062ZM40.1426 19.9062H41.1973V41H40.1426V32.5625H32.7451V41H31.6904V19.9062H32.7451V27.2891H40.1426V19.9062ZM29.5811 19.9062H30.6357V41H29.5811V19.9062ZM27.4717 19.9062H28.5264V41H27.4717V19.9062ZM40.1426 31.5078V30.4531H32.7451V31.5078H40.1426ZM40.1426 29.3984V28.3438H32.7451V29.3984H40.1426Z" fill="white"/>
<path d="M8.69531 16.6719V8.23438C8.69531 8.23438 10.6436 8.23438 14.54 8.23438C15.624 8.23438 16.5518 8.64453 17.3232 9.46484C18.1045 10.2852 18.4951 11.2715 18.4951 12.4238C18.4951 13.6152 18.1094 14.6211 17.3379 15.4414C16.5664 16.2617 15.6338 16.6719 14.54 16.6719H8.69531ZM9.75 15.6172H14.54C15.3311 15.6172 16.0049 15.3096 16.5615 14.6943C17.1279 14.0791 17.4111 13.3223 17.4111 12.4238C17.4111 11.5645 17.1279 10.8271 16.5615 10.2119C16.0049 9.59668 15.3311 9.28906 14.54 9.28906H9.75V15.6172ZM7.64062 17.7266H14.54C15.9268 17.7266 17.1133 17.2139 18.0996 16.1885C19.0859 15.1533 19.5791 13.8984 19.5791 12.4238C19.5791 10.9785 19.0811 9.74316 18.085 8.71777C17.0986 7.69238 15.917 7.17969 14.54 7.17969H7.64062V17.7266ZM6.58594 18.7812V6.125H14.54C16.21 6.125 17.6455 6.74512 18.8467 7.98535C20.0576 9.21582 20.6631 10.6953 20.6631 12.4238C20.6631 14.1914 20.0625 15.6953 18.8613 16.9355C17.6602 18.166 16.2197 18.7812 14.54 18.7812H6.58594ZM5.53125 19.8359H14.54C15.8291 19.8359 17.0254 19.5088 18.1289 18.8545C19.2324 18.2002 20.1113 17.3018 20.7656 16.1592C21.4199 15.0166 21.7471 13.7715 21.7471 12.4238C21.7471 11.1055 21.4199 9.87988 20.7656 8.74707C20.1113 7.61426 19.2275 6.7207 18.1143 6.06641C17.0107 5.40234 15.8193 5.07031 14.54 5.07031H5.53125V19.8359ZM4.47656 20.8906V4.01562H14.54C16.0146 4.01562 17.3867 4.3916 18.6562 5.14355C19.9355 5.89551 20.9512 6.9209 21.7031 8.21973C22.4551 9.50879 22.8311 10.9102 22.8311 12.4238C22.8311 13.957 22.4551 15.3779 21.7031 16.6865C20.9512 17.9854 19.9355 19.0107 18.6562 19.7627C17.3867 20.5146 16.0146 20.8906 14.54 20.8906H4.47656ZM3.42188 21.9453H14.54C16.21 21.9453 17.7627 21.5254 19.1982 20.6855C20.6338 19.8359 21.7764 18.6787 22.626 17.2139C23.4854 15.749 23.915 14.1523 23.915 12.4238C23.915 10.7246 23.4854 9.14746 22.626 7.69238C21.7764 6.22754 20.6289 5.0752 19.1836 4.23535C17.748 3.38574 16.2002 2.96094 14.54 2.96094H3.42188V21.9453ZM14.54 23H2.36719V1.90625H14.54C16.3955 1.90625 18.124 2.37988 19.7256 3.32715C21.3369 4.26465 22.6162 5.54395 23.5635 7.16504C24.5205 8.77637 24.999 10.5293 24.999 12.4238C24.999 13.8594 24.7158 15.2314 24.1494 16.54C23.5928 17.8486 22.8408 18.9766 21.8936 19.9238C20.9561 20.8613 19.8428 21.6084 18.5537 22.165C17.2646 22.7217 15.9268 23 14.54 23Z" fill="white"/>
</g>
<rect x="0.5" y="0.5" width="49" height="42" stroke="white"/>
<defs>
<clipPath id="clip0">
</clipPath>
</defs>
</svg>
