<svg id="Layer_1" data-name="Layer 1" xmlns="http://www.w3.org/2000/svg" viewBox="0 0 262.32 330.61"><defs><style>.cls-1{fill:none;stroke:#000;stroke-miterlimit:10;stroke-width:2px;}</style></defs><path d="M99.53,124.41c-.57-.09-3.6-.28-3.55.52C97,124.67,99.13,125,99.53,124.41Zm64.61-5.09c.42-.75-1.28-.18-1.62-.87.84.29,4-.2,3.56.52H170C169.56,119.67,166.09,118.74,164.14,119.32Zm-3.88-1.4c1.15-.4,2.09.11,3.56-.18C163.42,118.46,161.27,117.94,160.26,117.92Zm-5.16-.18c-.53.22-3.87.47-3.88-.17C152.87,117.43,153.57,117.82,155.1,117.74Zm-5.5.18a9.34,9.34,0,0,0-2.26-.18c-.27-.15,2.14-.34,2.91-.52C150.11,117.49,149.23,117.37,149.6,117.92Zm62.35-.35c-.44.45-2,0-2.58,0A6.4,6.4,0,0,1,212,117.57Zm-20.35-.88c.9.09,1.68.26,2.58.35C193.34,117.41,191.69,117.51,191.6,116.69Zm-19.38.53c.46-.76,1.36.3,2.9,0C175.7,117.62,172.87,117.27,172.22,117.22Zm15.5,0a.67.67,0,0,0,.33-.53,9.74,9.74,0,0,0,3.23.18C191.05,117.51,188.92,117.11,187.72,117.22Zm39.74-.7c2,.24,3.11-.89,5.81-.53-.83.46.53.14.33.7C232.58,115.86,229,117.35,227.46,116.52Zm-21.64.17a25.9,25.9,0,0,1,6.46-.17A32.85,32.85,0,0,1,205.82,116.69Zm-3.88-.35h-1.29c.38-.26.27-.78,1.29-.7C201.4,116,202,115.86,201.94,116.34Zm-5.17-1.58c1.09,0,1.11.69,2.26.71-.36.44-1.73.34-2.91.35C195.52,115.2,196.37,115.24,196.77,114.76Zm134.39-1.92c-.66.4-2.68.06-3.88.17C327.94,112.61,330,113,331.16,112.84Zm-257.47-.53c-.82.2-4.55.48-4.85-.18,1.21.32,2.38-.14,3.88-.17-.07.14-.33.17-.33.35Zm248.43-5.26c-.15.39-1.6.07-2.27.17-1.36-.24,2.86-.16.65-.35C320.82,106.38,322,106.85,322.12,107.05Zm4.19-8.42c3.13-.42,4,.55,0,0ZM216.8,89.16c1.26-.35,2.35.15,3.55-.35C219.75,89.87,218.34,89.2,216.8,89.16Zm-9.69.36c-.16-1-2.12,0-3.23-.53,1.82-.7,7.74-.44,9.36-.35C211.77,89.56,207.82,88.12,207.11,89.52Zm-124.7-.71c-1.1.13-.54-.64-1.3-.7.72-.65.87.45,1.94.18C82.94,88.52,82.48,88.56,82.41,88.81Zm111.13-1c-.35,0-.22-.35-.65-.35,1.13-.45,2.23-.3,4.52-.35C197.2,88,194.29,86.87,193.54,87.76Zm-3.23-.52c-.66.4-2.69.06-3.88.17C187.25,86.77,189.13,87.27,190.31,87.24Zm-4.2,0c-.16.24-2.92.42-2.59-.18A20,20,0,0,1,186.11,87.24Zm-11.31,0c-2.48.4-6.35.05-9.37.17,1.8-.78,6.36,0,7.43-.7C171.74,87.34,174.5,86.85,174.8,87.24Zm-12.92.17c-.47-.66.89-.33.64-.88C163.27,86.67,162.84,87.62,161.88,87.41Zm51.69-.17c.33-.88,3.06.11,3.55-.36C218.14,87.51,214.59,87.14,213.57,87.24Zm-50.4-.18c.24-.4,1.81-.07,2.59-.18C165.49,87.29,163.77,87.37,163.17,87.06Zm60.09-.35c-.72-.53,2.18-.44,2.91-.35C225.68,87.13,224,86.19,223.26,86.71Zm-91.1,0c-.75-.26-.5-.43-.33-.88.32,0,.26.22.33.35,1.86,0,1.75-.42,3.55-.17,1,.17-2.49.31,0,.35C135.26,86.87,132.61,86.2,132.16,86.71Zm43.29-.35c-.9-.26-1.64.1-2.91-.18C173,86,175.75,85.34,175.45,86.36ZM190,86c-.05-.49.78-.51,1.61-.53C191.72,86,190.55,85.85,190,86ZM134.42,85c1.53-.79,4.91-.16,1-.18C135.13,84.78,134.86,85,134.42,85Zm61.06-.35c-.43-.5,4.05-1.29,7.1-1.06C201.28,83.79,197.61,84.24,195.48,84.61Zm-104-.18c.71-.82,1.61-.54,3.56-.53A15.57,15.57,0,0,1,91.45,84.43Zm188.67-.88c-.31-.63,1.27-.24,1.94-.35C282,83.65,281,83.55,280.12,83.55Zm-.65-.52c-.79.79-5.9-.28,0,0Zm10.66-.7c-.52.06-.56-.18-1-.18C284.79,82.21,288.3,81.52,290.13,82.33ZM178.68,81.8a5.46,5.46,0,0,1,2.58-.35A5.44,5.44,0,0,1,178.68,81.8ZM80.79,123.36c.2-1.59,7-1.85,9-1.58-.25-.45-2.09,0-1.94-.7,2,0,2.59-.24,4.84-.35-3.21-.36-5.71-.53-7.75.35,0-.18.4-.14.65-.18-.65-.72-2.94.13-4.2.18A10.07,10.07,0,0,1,79.82,120c-2.24,0-3.58.34-4.84-.35-.21-1.4-.32-2.87-2.59-3.15.57-.81,4.53-.7,3.56-1.76,2.08-.46,4.88.36,6.13-.7-3.67.61-6-1-11-.35,1.64-1.4,4.71-.38,7.43-.7-.44-.45-2,0-2.58,0a.71.71,0,0,1-.33-.7c-.49-.38-3.17-.49-2.9-.7a21.76,21.76,0,0,1,2.58-.18,13,13,0,0,1-3.23-1.23c.32-.67,1.3-.32,1.94-.52-1.67-.16-.74-1.1-2.91-1.23,1.18-.32.94-.68-.32-.87.66-.41,2.68-.07,3.87-.18-.67-.86-2.62-1-3.87-1.58a11.92,11.92,0,0,1,2.58-.35,7.29,7.29,0,0,0-2.26-1c1.37-.25,1.32-.36.65-1,.91.69,3.76.6,5.49.35-.54-.47-2.23-.31-2.91-.7.24-.54-.56-.52-.32-1.06,1.33,0,1.21-.86,2.26-1-.32-.56-.92-.42.32-.7-.39-.39-3.2-1.62-.64-1.93.18-.63-1-.53-1.94-.52a32.91,32.91,0,0,1,3.23-1.23c-.72-.67-2.54-.18-3.88-.18.29-.54,1.51-.58,2.59-.7-1.22-.75,0-1.86-2.91-1.75,0-.45,1.08-.35,1.94-.35-.16-.61-1.13-.88.32-1-.69-.21-.63-.83-1.61-.88a7.36,7.36,0,0,1,2.58.17c.87-.15-.68-.42-1-.52.44,0,6.62.81,7.75.17-.27-.51-.81.23-1.61,0A4.72,4.72,0,0,1,84,90.92c-.45-.46-2.09-.27-2.58-.7.18-.17.9-.27.32-.35,1.2.08,2.23-1,3.88-1.23,0-.7-1.25-.73-1.94-1,0,.74-1.52-.16-2.26-.53.23-.41.74-1.11-.65-1,.28-.41,1.42.15,1.94.17s-.13-.22,0-.52a80.09,80.09,0,0,1,12-.53,178.4,178.4,0,0,0,26.17-.52c3.06.5,3.61-.16,6.79.35,2.69.42-1.34.05-1.3.17.23.59,5.86-.06,8.08.18,9.5,0-1.59.36-4.52.35-.51.74,1.79,0,1.29.7-2.85.48-5.49.14-9.69.35a18.7,18.7,0,0,0,4.52.35c-1.78.46,1.57.53,1.62,0,2.92.58,13.39,0,19,0-1.29-.33-2.21.07-3.23-.53a31.89,31.89,0,0,1,6.14-.7c.06-.38-.26-.56-1-.52.4-.17,3.57,1,5.5.17.46.08,0,.16,0,.35.54.07.61-.14.64-.35.55.64,2.75,0,2.91.7-4.29-.7-5.93.24-10,.7a30.73,30.73,0,0,0,6.14,0c-.14-.21-.41-.36-1-.35a2.37,2.37,0,0,1,1.62-.35c-2.26,1,3.16-.24,3.55.7.33-.22,1.74-.85,0-.7,1.34-.44,3.62-.37,5.49-.52-.36.21-.28.36.33.35a14.6,14.6,0,0,1-5.17.52c.1.42,1.53.11,1.29.71.85.05.25-.68,1.29-.53.4.8-1.13.55-1.29,1.05-.85-.81-1.85.39-2.91.53-.29.41,2.2.1,1,0a8.94,8.94,0,0,0,2.91-.18c-1.36.81,2.67,0,3.23,0,7.9-.19,20.15.49,26.49,0-.14.22-.41.36-1,.35.93.38,3.66.24,3.88-.35,0,.71,5.83-.16,3.87.35-.55,0-.83.14-1,.35a54.91,54.91,0,0,0-7.11.18c3.77.76,7-.44,10.34.17-.63.7-1.82-.2-1.94.53-1.83-.75-5.68.07-9.37-.17-.12-.3.25-.34.65-.36-.14-.39-1.6-.07-2.27-.17.1.24.81.14,1.3.17-1.43.62-2.72.52-5.5.71.19.16.9.26.33.35,2,.59,3.63-.48,5.49-.53,2.55,1,4.88.26,7.75.18.44,0,.12,1-1,.7.68.56,3.19,0,5.17.17-.42-.63-1.06,0-1.94-.35.35-.34,1.87,0,1.94-.52a5.68,5.68,0,0,0,3.88-.53c1.33.4-1.15.17-.65.7.14.39,1.59.07,2.27.18a2.37,2.37,0,0,1-1.62.35c.55.4,2.46.06,3.55.17.25-.93-1.71.31-1.29-.52,5.17-.27,7.86.53,9.69-.88-.1-.24-.81-.15-1.29-.18-1-.24,1.14-.17,1.61-.17-.2.38.92.56-.32.53a27.33,27.33,0,0,0,5.82,0c0,.16-.4.13-.65.17-.27.66,1.45.62.65,1a26,26,0,0,0,4.2-.17c-1-.39-1.6,0-2.59,0-.12-.71,2-.2,2.91-.35-.37-.54-2-.27-3.88-.35,5.88-.8,11.91-.14,16.8-.18-.83.28-2.49,0-3.87.35a8,8,0,0,0,2.9.35c-.05-.2-.59-.15-1-.17,2.28-.06,3.9.27,7.43.17-.13-.39-1.71,0-1.94-.35.81-.46,2.46-.08,2.91-.35.88-.12-.23.83.65.7.62-.61,1.82.32,3.55-.35.39.23.13.28,0,.53,2-.13,3.68.36,5.5-.35,0-.32-.4-.37-.33-.7a19.56,19.56,0,0,0,2.91-.18c-3.15-.47-6.4-.25-10-.7-1,.77-1.57.86-3.87,1-1.17-.07-.81-1-2.59-.7.06.21.59.15,1,.17-1.65.09-4-.15-5.81-.17.85-1,3.2,0,4.2-.35.05-.38-1.15-.08-1.62-.18a2.43,2.43,0,0,1,1.94-.17c.89-.16-.75-.71,1-.53a7.56,7.56,0,0,0-2.58-.35c.44-.4,2.24-.06,3.22-.17-.08-1-5.07-.11-4.19-1.06a6.16,6.16,0,0,0-2.26.18c.13.39,1.71,0,1.93.35-2,.5-8.75-.25-11.63-.35a67.68,67.68,0,0,1,9.37.17c-.06-.55-1.06-.59-2.26-.52-1-.16-1-.59,0-.18,5.85-.06,8.12.88,13.24.53-1.56-.45,2.22-.3,3.24-.18.33-.58-1-.27-1.62-.35,5.6-.34,15.43.63,21.32-.17,2.45.76,3.15-.44,5.49.35.08-.81,5,.31,6.79-.35-.5-.61-2.41-.45-2.91-1-1.4,0-2.05.4-3.55.35.27.26,1,.25,1.61.35-.38.47-1.68,0-2.26,0,.06-.15.32-.18.32-.35-1.29-.15-3.85-.48-4.19-.53-3-.46-.64,0,1,0a137.73,137.73,0,0,1,18.42.88c.51,0,1.23-.09,1.29.17h-1.29a16.87,16.87,0,0,0-3.56-.17.77.77,0,0,0-.64.7c.55.06.61-.14.64-.35.24.39,1.37.31,1.94.52.81-.07-.31-.5-1-.35.14-.39,1.6-.07,2.26-.17-.86.64,1.15.93,2.59.87-.54-.6-1.44,0-2.26-.52,2.21-.33,5.8.12,7.1.87a14.32,14.32,0,0,1,3.88-.17c-.39.23-.12.27,0,.53,2.27.12,3.55-.3,5.82-.18-.32.18-.64.36-1,.53.34.34,1.31-.45,2.58-.18-2.41.29,1.72.73,1.62.18.94.15.36.26.32.7.87-.77,3.28-.11,4.85-.18.07-.09-.5-.22-.65-.18,3-1,5.47,1.09,6.46,1.94-1,.12-1.18-.18-1.94-.18.37.33.38.84,1.62.7-.13,1-.5,1.29,1.29,1.4.17.26-1.26.43-.32.53-.18.51-.51-.27-1-.18,0,.21-.07.32-.32.36.28.42,1.8.18,1.61.87h-1.29A43.57,43.57,0,0,0,327,94.78a53.14,53.14,0,0,0-7.11-.36c-.06.31.55.46,0,.53,0,.45,1.08.35,1.94.35-.14.63-1.68.49-2.91.53,1.81.3,1.68.37-.64.35.88.4.56.95,3.23.52-.78.5-.74.42-1.94.53,1.8.52,2.53.25,3.55.7-.09,0-1.44.74.33.53-.33.49-1.38,0-1.94,0,.68.44,2.07.51,1.94,1.4-.48-.09-.82-.26-1.29-.35-.88.16.68.42,1,.53-.14.39-1.59.07-2.26.17.36.22.28.36-.32.35a5.42,5.42,0,0,0,2.91.35c.41.28-2.73.46-2.91,0-.48.57-.62.5-1.94.35a10.21,10.21,0,0,0,4.52,1.41c-.93.38-2.73-.27-4.2-.18a17.19,17.19,0,0,0,3.88.7c-.57.52-1.72-.1-2.58,0a37.34,37.34,0,0,0,5.16.88c-2.95.26-6.08-.91-10.33-.53,4.56.92,10,1.36,14.53,2.28-2.13.34-4.28-.82-7.42-.52,1.66.39.14.4-1,.17a2.27,2.27,0,0,0,1.61.35c-.08.46-.66.58.65.53-1.08.46-2.76-.25-4.53,0,.05.32,1.1.1,1.3.35a10.92,10.92,0,0,1-2.26.52c0,.39.81.38,1.61.36.37.47-2.19-.12-3.23,0,.82.47,3.27.45,3.88.52-.68.74-2.59,0-3.88.35.8.59,2.75.57,3.55.7-.84.86-3.47-.17-5.49.18.24.63,2.84,0,2.59.87a18.47,18.47,0,0,1-2.59.18c1.13.62,3.66.47,5.82.53-1.22.74-5,.07-6.79.52.67.51,2.28.52,3.56.7-.06.21-.59.15-1,.18.13.39,1.59.07,2.26.17-.4.49-2,.33-3.23.36,1.34.45-.49.36-.65.52,1,.38,3,.26,4.2.53.06.38-1.15.08-1.61.17a4.67,4.67,0,0,0,2.26.35,15.77,15.77,0,0,1-6.14.35c.37.68,2.36.47,3.23.88.05.38-1.15.08-1.62.18,2-.49-3.57-.61-3.55,0,1.62.4,4.63.06,6.79.17.52,0,.55.17,1,.18,4.44,0,1.63.1-.64.35a44.27,44.27,0,0,0,5.81.7c-2.25.53-8.7.3-12.92.35.35-.55.33-.56-1-.53.45-.4,2.25-.06,3.23-.17-1.75-.22-5.29-.74-6.46-.18,1,0,.65.82,1.94.7-1.12-.18-1.08.86-.65.53-.46.34-1.7.15-1,.88-4.33.2-10,1.86-13.57.35,2.05.2,4.09.17,7.11.17a62,62,0,0,0-9.37-.35c0,.53,2.4-.25,1.94.53-4.66-.64-5.79-.3-11.3-.53.76.58,2.08.86,1.93,1.93,4.29,0,8.28.4,11.63-.35-10.25,1.46-23.78.64-34.24.53,5.94.28,11.56-.48,16.48-.18-.77-.59-1.05-.36-2.59-.52.82-.46,1.51-.2,3.23-.36-1.77.56,5.11.4,0,.53a23,23,0,0,0,4.52.35c.23-.59-.54-.64-1.29-.7,0-.2.59-.15,1-.18-2.81-1.16-5.45-.58-9.69-.52.18-.37.5-.37,1-.18-3.17-.86-9.82-.53-14.22.18,1.05-.34-1-.63-.64,0-.71-.2-1.78-.2-1.94-.7a6.22,6.22,0,0,0,2.26.17c-2.83-.64-10.12.25-11.31-1-3.67.11-8.52-.22-12.27-.18-.26,0-.31.36-.32.36-2-.08-3.52-1.19-5.17-.18.38-.23.12-.28,0-.53-3.07.23-6.38,0-7.76.35,2.41-1.11,8.78,0,12.28-.87-.52-.5.54-.75-1-.7.29-.31,1.19-.29,1.29-.7-5.08-.17-9.08-.92-14.21-1.06,1.94.79-.51-.06-1.62.53-.2-.82-1.83-.59-2.91-.53,1.53-1.31-3.18-1.13-5.17-.7,2.07-.86-1.35.19-1.61,0,.24.41-1,.47-1,1.23a8.53,8.53,0,0,0-2.58-.53c.46-.78,1.36-.29,2.9-.35v-.52c-3.88-.25-7.08.13-11.3.17a61.29,61.29,0,0,0,8.4.18c-2.15,1.3-4.61-.24-7.43.87.06-.14.32-.17.32-.35-3.95.21-7.85-.21-11.95.53-2.22-.79-3.51,0-5.82,0,2.27.5,5.77,0,8.4.17.4.1-.24.68,1.29.53-1.86-.63,1.59-.08,1.94-.53,1,.5.69.07,1.29.88-1.41,0-1.66-.57-2.9-.17a.9.9,0,0,0,.64.35c-1.79.28-6-.24-8.07.35-.06.09,1.83.18.32.35-.06.38,1.15.08,1.61.17-1.45-.45.5-.34,1.62-.35.54.28-.42.81,1,.88-1,.6-1.11-.79-2.91-.35-.33.59,1,.27,1.62.35-1.05.61-2.24-.18-2.91-.35-.48.08.13.22,0,.52-1.88-.36-2.57.07-6.14-.17.3-.59.6-.09,1.62-.18-.25-.92-2.63-.07-4.53-.35.27-.4,2-.48,2.59-.17.31-.6-4.3-.26-1.62-.53-2.16-.7-3.1.76-5.49.53.05.32,1.09.11,1.29.35-2-.15-6.21.29-8.07.17,0-.17.39-.13.64-.17-4.11-.26-9.69-.55-12,.17-2.14-.66-6.35-.3-8.4-.17.29.13,1.3,0,2.26.17-1.16.72-4-.22-5.81.35.13.34,1.25.14,1,.71-.26-.13-.89-.28-1,0-.68,0,.47-.47-.32-.71-3.66-.31-1.87.28-4.21.36a84.14,84.14,0,0,0,17.45.52c0-.17-.4-.13-.65-.17-.91-.38,1.95-.07.65.35.26-.12.89-.28,1,0,.4,0,.33-.35,0-.35,3.51.12,5.14-.33,7.43,0,0,.38-1.37.07-1.94.17a12.38,12.38,0,0,0,3.55.35c-6.49.57-12.89,0-19.06.7-14.41.57-31-1.06-44.58,0,7.12,1-2,.16-4.84.18,2.2.41,5.88.82,1.93.7a11.56,11.56,0,0,0-2.58-.17c.68.4,1.56.36,1.29.87a5.67,5.67,0,0,1,3.55,0c-.48.89-3.81.75-2.9,1.4-1.56.1-.24-.66-2.26-.52-.38,0-.28.32-.32.52-.75-1.16-1.31.1-2.91.35C87.93,123.46,82.6,122.24,80.79,123.36Zm77.54-35.95c-1.93.62-4.6-.63-6.47.35,1.1.3,2-.38,1.94.53.53-.26,3.92-.83,2.26-.18C156.61,87.87,159,87.75,158.33,87.41Zm43,3.33c5.31.45-1-.77-1.29-.35A9.25,9.25,0,0,1,201.29,90.74Zm33.6,26.3c1.64.08,3,0,3.55-.52-1.14,0-2.95-.44-1.61.17-1.34,0-1.3-.21-1-.7,2.53-.56,6,.21,7.43-.7h2.91c1-.27-1.41-.15-1.94-.18-1.36.09-5.08-.19-4.85.18.48,0,1.19-.06,1.29.18C236.4,115,234.79,115.27,234.89,117Zm-148,5.79c1.36-.18,2.17-.24,2.91-.35,3.85-.55-3.39-.12-3.88.17C86.34,122.68,86.88,122.62,86.93,122.83Zm3.88-1.23c.7-.11,1,.5,1-.17H90.16v.7h1A.66.66,0,0,0,90.81,121.6Zm5.49,0c-1.43.07-2.83-.79-4.2-.17C93.15,121.59,95.84,122.23,96.3,121.6Zm86.25-5.43c-.19-.6-1.88-.38-2.9-.53.4.57-1.05.13-.65.7A4.41,4.41,0,0,1,182.55,116.17Zm-8.07-.35c.79.33,2.79,0,3.23.52C178.94,115.5,175.33,115.46,174.48,115.82Zm-1,0a24.85,24.85,0,0,0-5.82-.35c-.23.47.64.35.65.7a14,14,0,0,1,4.2,0c-.25,0-.64,0-.65.17A3.51,3.51,0,0,0,173.51,115.82Zm13.89-.18c-.17.63,2.9.4,3.23.18C189.34,115.87,188.84,115.5,187.4,115.64Zm-33.6.18c2.32-.1,3.17-.47,3.88.17.95-.46,3.24-.41,1,0,1.41,0,2.82.06,2.58-.35.93.37,3.07,0,4.2-.17C162.14,115.38,156.76,114.89,153.8,115.82Zm67.52-1.58c.54-.35,0-.22,0-.7-.8,0-2.87.17-2.26.35C220.94,113.63,220.55,113.78,221.32,114.24ZM189.66,113h-1.61v.53c.88,0,.65-.29,1.29,0C189.32,113.3,189.49,113.15,189.66,113Zm-1.94-.17c-1.78.39-5.32-.13-6.14.34.58,0,1.62-.17,1.3.36,1,.13.62-.48,1.61-.36C184.46,114,186.9,113.25,187.72,112.84Zm25.52,0c2.52.72,2.33-.69,0,0Zm-.32-.18c-1.09.11-3-.23-3.55.18C209.91,112.8,212.32,113.38,212.92,112.66ZM315.65,91.44c-1.33.07-2.19-.44-2.9.18C314,91.57,315,92.06,315.65,91.44Zm-158.94-.52a9.07,9.07,0,0,0,3.88,0A7.28,7.28,0,0,0,156.71,90.92Zm76.56-.35a9.79,9.79,0,0,0,2.91,0A6.27,6.27,0,0,0,233.27,90.57Zm-1.61,0c-4.12,0-.24.58,1.29-.18C232.34,90.37,232.24,90.56,231.66,90.57ZM262,90c-1.36.23-2.71-.45-2.91.18C260.92,90,261.38,91,262,90Zm-89.49-.17c-1.54.32-3.34-.45-4.2.35C169.76,89.93,172.27,90.29,172.54,89.87Zm2.58-.18c.9,0,4.72,0,2.26-.17-1.4.11-3.65-.23-4.52.17.38.43,1.22-.36,1.62.18-.25,0-.64,0-.65.17C174.71,90.17,174.48,89.69,175.12,89.69ZM315,89.34c-5.24-1.19-10.17-1.82-13.25-.7,5.59.25,10.89.59,14.22,1C315.47,89.67,314.85,89.71,315,89.34Zm-44.26.18a7.91,7.91,0,0,1-2.59-.18C268.43,90.19,269.89,89.79,270.75,89.52Zm-3.23-.18c-1.15,0-2.61-.13-2.59.53C265.56,89.67,267.88,89.49,267.52,89.34ZM146.69,88.11c-.63,0-.63.24-1,.35-.41-.24-1.58-.27-1.61.18,1-.13,1.18.18,1.94.17C146.05,88.46,146.93,88.59,146.69,88.11Zm98.86,0c.5-.54-2.11-.54-1.62,0Zm1.29.18c.18-.31.17-.73.65-.88-.2.59,2,.75,2.58.35-1.16.07-.44-.32.33-.17.18-1.22-3.09-.14-2.27-.88-1.79.08-2.44.23-2.9.7-.61-.33.19-.31,0-.88-.94,0-1.11,0-.65.35h-1A16.88,16.88,0,0,0,246.84,88.29Zm6.14-.88c1.42,0,2.78,0,3.23.52-1.9.11-5.64-1.15-5.81.18,4.12-.32,9.7.29,13.56.18C262.26,87.75,255.94,86.59,253,87.41Zm-109.19.52c3.62.18,1.55-.76,0,0Zm149.57-1.22c.67-.11,2.12.22,2.26-.18C294.69,86.51,293.44,85.74,293.36,86.71ZM191.92,117.92c2.25-.75,4.38,0,7.43-.18C197.18,118.25,193.86,117.64,191.92,117.92Zm8.73-.53c.08-.19.64-.12.64-.35a26.83,26.83,0,0,1-4.2-.35c-.1.47,1.81-.16,1.29.53a32.26,32.26,0,0,1-3.55,0c.77-.8,5-1.07,7.11-.18A1.9,1.9,0,0,1,200.65,117.39Zm24.55-.7c-1.9.13-6.68-.15-9.37.18,1.46-1.21,6.76,0,8.08-.88.8,0,1,.28,1.61.35C225.34,116.51,224.62,116.61,225.2,116.69Zm-3.88-.7a21,21,0,0,1-5.17,0A15.74,15.74,0,0,1,221.32,116Zm-15.18.18c0-.32-1-.61-2.59-.53,1-.63,2.1,0,4.2-.7.41,1,3.21.56,4.85.35,1.1.53-1.28.65-1.94.35.21.18.74.18.64.53C210.09,116,207.87,115.56,206.14,116.17Zm8.72-1.58c-1,.27-3.14-.28-4.52-.35-.15-.49,1.76.14,1.61-.35C211.49,114.48,213.81,114.33,214.86,114.59Zm33.6-24.37c-.37,0-.18-.18,0-.18,0-.38-1.15-.08-1.62-.17a19,19,0,0,1,5.49-.18C251.71,90.23,248.62,89.43,248.46,90.22Zm-22.29-1.06c-2.33.3-2.83,0-5.82.18.28-.43.75-.76,1.94-.7-.21-.18-.74-.18-.65-.53,1.42-.38,5.26,0,6.14-.18,1.18.38-.93.41-1.61.36.4.32,3,.35,2.58-.36a2.87,2.87,0,0,0,1.29.18c.24.54-.88.34-.64.88.91,0,.26-.74,1.93-.7.1.28-.3.3-.32.52.14.22.41.36,1,.35-1.63.31-3.85-.08-5.49,0-.05-.38,1.15-.07,1.61-.17a17.16,17.16,0,0,0-5.81-.18C222.67,89.37,225.65,88.75,226.17,89.16Zm9.69-.35c-.18.51-.51-.26-1-.17a6.44,6.44,0,0,1,3.88-.53C238.5,88.65,235.07,88,235.86,88.81Zm-18.74,0c-.27-.49.46-.45.32-.88-2.13-.16-2.14.83-3.87.88.32-.52-.72-.31-1.29-.35.08-.36,1.43,0,1.29-.53-4.67.72-9.92.06-12.92,0,2.3-.73,8.57.1,11-.69-1.06.9,3.92.37,6.14.52C217.24,88.33,218.35,88.71,217.12,88.81Zm-19.71-.88c-.44.06-2,0-3.23.18C194.5,87.32,196.3,87.75,197.41,87.93Zm16.16-1.22h-1.29c-1.13-.14,2.8-.36.64-.53.49-.53,1.42.15,2.26,0C215.12,87,213.44,85.87,213.57,86.71ZM168,86.36c0-.17.39-.14.64-.18,0-.2-.59-.15-1-.17.07-.14.33-.18.33-.35h-.65c.66-.41,1.68.48,3.23.17A11.36,11.36,0,0,1,168,86.36ZM291.75,85c.95-.16-.75-.27-.33-.7,1.11.22,9,.53,5.5.7.44.45,2,0,2.58,0-1.65.52,1.28.25,1.94.52-1.5.4-3.65-.35-5.82-.17-.12.42,1.47-.1,1,.52-.66-.06-2.12-.58-2.58-.17C294.73,84.89,285.92,84.78,291.75,85Zm-146.67.87c0-.5,1.35-.32,2.26-.35-.1-.23-.81-.14-1.29-.17,0-.39,1.37-.08,1.94-.18C147.78,85.78,146.07,85.61,145.08,85.83Zm15.51-.52c8-2.32,19-.89,29.72-1.58.5.09,0,.18-.32.17C180.18,84.47,171.51,85,160.59,85.31ZM176.42,85a12.43,12.43,0,0,1,2.9-.53C179.67,84.63,177.54,85,176.42,85Zm108.87-1.41c.09.31-1.26.62-1,0-1.15.16-.8,0-1.94.18C282.49,82.92,284.46,83.64,285.29,83.55Zm24.87,36.12c.08-.19.64-.12.65-.35s-.4-.13-.65-.17a87.35,87.35,0,0,1,11.63-1.41c-.26.45-1.7.25-2.26.53.05.21.59.15,1,.18-.1.23-.81.14-1.29.17.05.21.59.15,1,.18A27.61,27.61,0,0,1,310.16,119.67Z" transform="translate(-68.84 -35.87)"/><path d="M179.15,43.27c.09-.14.29-.89-.51-.89C178.9,42.63,178.55,43.16,179.15,43.27Zm4.85,16c.76.12.19-.31.88-.38-.29.2.18,1-.54.87v1C183.63,60.64,184.58,59.79,184,59.3Zm1.42-.93c.39.29-.13.51.16.88C184.87,59.14,185.39,58.62,185.42,58.37Zm.19-1.28c-.21-.13-.45-1,.19-1C185.93,56.55,185.55,56.71,185.61,57.09Zm-.15-1.36c.06-.18.28-.29.18-.55.16-.07.34.53.52.72C185.88,55.86,186,55.65,185.46,55.73Zm.12,15.41c-.45-.12,0-.49,0-.64C185.82,70.68,185.69,71,185.58,71.14Zm.95-5c-.1.22-.26.41-.36.63C185.81,66.54,185.71,66.13,186.53,66.13Zm-.46-4.8c.76.12-.3.33,0,.72C185.66,62.18,186,61.49,186.07,61.33Zm0,3.83a1.63,1.63,0,0,0,.52.09c-.22.24-.34.59-.19.79C185.72,66,186.12,65.46,186,65.16Zm.55,9.83c-.25.5.88.78.51,1.44-.46-.21-.14.13-.7.07C187.22,76.26,185.73,75.35,186.57,75Zm-.09-5.35a1.73,1.73,0,0,1,.15,1.6C186.23,70.76,186.45,70.15,186.48,69.64Zm.36-1v-.31c.26.09.78.08.69.33C187.2,68.56,187.32,68.7,186.84,68.68Zm1.6-1.25c-.05.27-.69.26-.71.55-.45-.1-.34-.43-.34-.72C188,67.12,188,67.33,188.44,67.43Zm1.44,33.23c-.4-.17-.06-.66-.17-1C190.11,99.87,189.77,100.36,189.88,100.66Zm1.47-63.6c-.21-.2-.47-1.13.19-1.19-.33.29.14.59.16,1-.14,0-.18-.09-.35-.09Zm4.34,61.45c-.39,0-.06-.39-.16-.56.24-.33.15.71.34.16C196.37,98.2,195.89,98.48,195.69,98.51Zm8.4,1.16c.41.78-.56,1,0,0ZM214,72.76c.35.31-.15.58.34.88C213.25,73.48,213.92,73.14,214,72.76Zm-.31-2.4c.95,0,0-.52.54-.79.69.46.4,1.92.31,2.32C213.59,71.51,215,70.56,213.65,70.36Zm1.15-30.8c-.12-.27.65-.12.71-.3.65.18-.45.2-.18.47C215.1,39.7,215.06,39.59,214.8,39.56ZM215.45,67c0-.08.35,0,.35-.15.45.28.29.55.34,1.12C215.19,67.94,216.34,67.23,215.45,67Zm.54-.79c-.4-.17-.06-.66-.16-1C216.47,65.5,216,66,216,66.24Zm0-1c-.24,0-.41-.73.19-.64C216.32,64.87,216,65,216,65.21Zm0-2.8c-.39-.62,0-1.57-.13-2.31.77.45-.07,1.56.67,1.84C216,61.66,216.43,62.34,216,62.41Zm-.12-3.19c.66-.11.33.22.87.17C216.65,59.57,215.7,59.45,215.92,59.22Zm0,12.77c.88.09-.12.75.34.88C215.61,73.12,216,72.24,215.9,72Zm.36-12.45c.4.07.06.45.17.64C216,60.11,216,59.69,216.26,59.54Zm.13,14.85c.54-.17.43.55.35.72C216,75,216.91,74.57,216.39,74.39Zm.34-22.5c.26-.19.43-.12.88-.07,0,.08-.22.06-.36.07,0,.46.42.44.17.88-.18.26-.31-.62-.35,0C216.55,52.65,217.24,52,216.73,51.89Zm.19,10.7c.26-.22-.09-.41.18-.72C217.27,62,217.94,62.67,216.92,62.59Zm.3,3.59c.49,0,.5.2.52.41C217.21,66.61,217.38,66.32,217.22,66.18Zm1.25-13.71c.79.39.14,1.22.18.24C218.65,52.65,218.39,52.58,218.47,52.47Zm.13,15.09c.49-.1,1.27,1,1,1.77C219.4,69,219,68.09,218.6,67.56Zm.55-25.7c.82.19.54.41.52.89A1.61,1.61,0,0,1,219.15,41.86Zm.19,46.62c.63-.06.24.32.35.49C219.24,89,219.34,88.7,219.34,88.48Zm.53-.15c-.79-.2.3-1.45,0,0Zm.66,2.65c-.06-.13.18-.14.18-.24C220.67,89.66,221.35,90.53,220.53,91Zm.94-27.53a.56.56,0,0,1,.34.64A.53.53,0,0,1,221.47,63.45Zm-41.2-24.8a1.72,1.72,0,0,1,1.55,2.26c.45,0,0-.51.71-.47,0,.5.22.65.33,1.21.36-.79.54-1.41-.32-1.92.17,0,.13.09.17.16.73-.15-.12-.73-.16-1a8.13,8.13,0,0,1,1.06-.39c0-.55-.33-.89.37-1.19,1.4,0,2.87,0,3.16-.59.81.15.68,1.13,1.74.9.46.53-.37,1.21.68,1.53-.59-.92,1.06-1.48.39-2.71,1.4.43.36,1.17.67,1.85.46-.1,0-.49,0-.64a2,2,0,0,1,.71-.07c.38-.12.49-.78.71-.71,0,.26.3.35.16.64a4.39,4.39,0,0,1,1.24-.78c.68.09.33.33.52.49.17-.41,1.11-.17,1.24-.7a.54.54,0,0,0,.88-.07c.4.17,0,.67.16,1,.87-.15,1-.63,1.59-.93.27.14.23.43.34.64a3.19,3.19,0,0,0,1.06-.54c.25.34.36.33,1,.18-.69.21-.61.92-.37,1.35.47-.13.32-.55.71-.71.54.06.52-.13,1.06-.07,0,.33.85.32,1,.58.56-.07.43-.22.7.09.39-.09,1.63-.77,1.93-.13.63.05.54-.23.54-.47a12.13,12.13,0,0,1,1.21.81c.67-.16.18-.62.19-1,.54.08.57.38.69.65.76-.29,1.86,0,1.77-.69.44,0,.34.27.34.48.61,0,.89-.27,1.05.09.21-.16.83-.14.88-.38.17,0,0,.52-.18.63.15.22.42-.16.53-.23,0,.11-.84,1.62-.21,1.91.52,0-.22-.2,0-.39.31.15.57.33.51.64.47-.1.28-.51.72-.63.16.05.26.23.34.09-.09.3,1,.57,1.22,1,.69,0,.73-.3,1.06-.47-.75,0,.16-.37.53-.55.42.06,1.11.2,1.06-.14.41.07-.16.35-.19.47s.23,0,.53,0a5.19,5.19,0,0,1,.48,3,11.13,11.13,0,0,0,.43,6.47c-.51.75.14.9-.37,1.67s-.06-.33-.17-.32c-.6.05,0,1.45-.21,2,0,2.34-.36-.4-.33-1.13-.74-.13,0,.45-.71.31-.47-.71-.12-1.36-.31-2.4a1.38,1.38,0,0,0-.37,1.11c-.46-.44-.53.38,0,.4-.59.72-.09,3.31-.07,4.71.34-.31-.06-.55.54-.79.5.39.52,1,.68,1.53.38,0,.56-.06.53-.23.17.1-1,.86-.2,1.35-.08.12-.15,0-.35,0s.14.15.35.16c-.64.13,0,.68-.71.71.71-1.05-.21-1.47-.66-2.49-.32.36-.11,1.17,0,1.52.22,0,.36-.1.36-.23.25.07.37.2.34.4-1-.57.23.78-.71.87.22.08.84.44.7,0,.44.33.36.9.5,1.36-.21-.09-.35-.07-.35.08a1.26,1.26,0,0,1-.51-1.29c-.41,0-.1.38-.7.31-.06.21.68.07.52.33-.8.08-.55-.29-1.05-.34.82-.19-.38-.46-.51-.72-.41-.08-.11.54,0,.24,0,.18-.21.37.17.72-.8-.35,0,.66,0,.8.16,1.95-.57,5-.1,6.54-.21,0-.36-.11-.35-.24a.54.54,0,0,0,.34,1c-.71,0,.14,1.44-.36,1,0-.14-.13-.21-.35-.24a3.44,3.44,0,0,0-.15-1.76c-.78.92.41,1.74-.21,2.55-.7-.17.21-.45-.52-.49.75-.44,0-1.4.2-2.31.3,0,.34.07.35.17.4,0,.08-.4.19-.56-.24,0-.15.2-.18.32-.62-.37-.51-.68-.68-1.37-.17,0-.27.22-.36.07-.6.48.47.91.51,1.37-1,.61-.28,1.2-.2,1.91,0,.11-1,0-.7-.25-.56.16,0,.79-.19,1.28.63-.1.05-.27.35-.48.34.09,0,.46.52.49-.32.39-.06.64.51,1-.41.33-.16-.28-.7-.17-.39,0-.07.4-.18.56-.26-.07-.37-.21-.34-.4-.41.13-.08.6-.19.87.93.07-.3-.43.53-.31.24,1.28-.56,1.93.84,2.41.24,0,.15-.2.18-.32.25-.25.17.28.17.4-.38-.05-.56.22-.53-.09a1.7,1.7,0,0,0,0,1.44c-.17,0-.13-.1-.17-.16-.66-.08-.63.35-1,.14,0,.49,0,.8.16,1,.39-.24,0-.39,0-.64.71,0,.18.5.34.73.53-.09.27-.5.36-1,.77,1.47.09,2.95.12,4.16-.28-.21,0-.62-.34-1a.74.74,0,0,0-.36.72c.2,0,.15-.15.17-.24,0,.56-.28,1-.2,1.83.39,0,0-.42.36-.47.46.21.07.61.34.72.12.22-.83-.07-.7.15.61.16-.33.45.33.89-.23.09-.27,0-.52,0,.11.49-.38.9.33,1.36.31,0,.37-.09.7-.07-.12.32.16.46.16.72.49-.77.28-1.58.74-2.46-.77-.26-.85-.4-1-1,.07-.28,1-.18.71-.62-.21,0-.15.14-.18.23a6.65,6.65,0,0,1,.2-1.43c1,.22,0,.79.33,1,.38,0,.08-.28.18-.39.25.11.46.36.17.48.15.22.71-.18.52.24a.71.71,0,0,0,.36-.63c.4.12.06.56.16.8,1,0,.13-1.25,1.07-1,0-.21.07-.46-.16-.56-.4,0,0,.42-.36.47-.5-.5.28-2.16.39-2.87a4.22,4.22,0,0,1-.21,2.32c.55,0,.6-.26.54-.56.16-.23.59-.23.17,0,.05,1.44-.9,2-.57,3.26.45-.38.29.55.16.8.59.09.28-.24.36-.39.32,1.39-.69,3.8.09,5.27-.76.59.43.78-.37,1.35.81,0-.33,1.22.33,1.68.61-.11.45-.59,1.06-.7,0-.35-.4-.51-.34-.88-.26.06-.25.25-.35.39-.47-.1,0-.42,0-.56.14,0,.17.08.34.09.15-.32.49-.95.55-1,.46-.74-.05-.16,0,.24a9.07,9.07,0,0,1-.94,4.53c0,.13.08.31-.18.32v-.32a1.13,1.13,0,0,0,.19-.88,1.22,1.22,0,0,0-.7-.17c-.06.14.14.16.35.17-.4.05-.32.33-.53.47.07.2.5-.07.35-.24.39,0,.07.4.17.57a.61.61,0,0,0-.89.62c.61-.12,0-.35.54-.55.31.55-.15,1.43-.9,1.74.32.33.16.44.16,1-.23-.1-.28,0-.53,0-.13.55.28.88.15,1.44l-.52-.25c-.34.08.44.33.17.64-.28-.6-.73.41-.18.4-.16.23-.27.08-.71.06.77.23.1.82.16,1.2.1,0,.23-.12.18-.15,1,.75-1.1,1.33-2,1.56-.13-.24.18-.28.18-.47-.33.08-.85.08-.71.39-1,0-1.29-.14-1.41.3-.25,0-.42-.32-.52-.09-.51,0,.27-.12.18-.24s-.31,0-.35-.08c-.43.06-.2.44-.88.38v-.32A6.89,6.89,0,0,0,208,99.89c.11-.47.57-1.23.38-1.75-.31,0-.46.13-.53,0-.45,0-.35.26-.36.47-.63,0-.49-.42-.51-.72-.31.44-.38.41-.35-.17-.41.22-1,.13-.54.79-.49-.2-.41-.19-.52-.48-.53.43-.26.62-.71.86,0,0-.74-.36-.53.08-.49-.09.05-.34,0-.48-.45.16-.53.5-1.41.46.09-.12.26-.2.35-.32-.15-.22-.42.16-.53.23-.39,0-.06-.39-.16-.56-.22.09-.36.07-.35-.08-.31.2-.59.47-.36.71-.28.1-.45-.68,0-.72-.57-.12-.5-.16-.35-.48a2.35,2.35,0,0,0-1.42,1.09c-.37-.23.28-.67.19-1-.29.29-.65.55-.71,1-.52-.15.11-.43,0-.64-.48.33-.6.84-.9,1.26-.24-.73.93-1.49.57-2.54-.93,1.11-1.4,2.45-2.34,3.55-.33-.53.85-1,.56-1.82-.41.4-.41,0-.17-.25-.27.07-.39.2-.36.4-.46,0-.57-.17-.53.15-.45-.27.26-.68,0-1.12-.33,0-.11.27-.36.32-.13-.21-.5-.31-.52-.57-.38,0-.38.2-.35.39-.48.09.12-.54,0-.79-.47.19-.47.8-.54,1-.74-.18.06-.64-.34-1-.59.19-.58.67-.71.87-.85-.22.18-.85-.16-1.36-.63,0,0,.7-.88.63,0-.26-.31-.35-.17-.64-.62.26-.48.89-.55,1.42-.73-.31-.05-1.24-.5-1.68-.51.16-.52.56-.71.87-.21,0-.15-.15-.17-.24-.4,0-.08.39-.19.55-.48-.1-.31-.49-.34-.8-.46.32-.36-.13-.52-.17-.38.25-.27.73-.54,1-.38,0-.08-.28-.17-.4a.53.53,0,0,0-.36.55c-.54-.37-.52-.91-.33-1.52-.67.08-.48.58-.88.79-.39,0-.08-.29-.17-.41.47.5.61-.87,0-.87-.41.39-.08,1.14-.2,1.67,0,.13-.17.14-.18.24,0,1.09-.11.4-.35-.17-.44.38-.5.94-.72,1.43-.53-.57-.27-2.16-.31-3.2.55.1.57.09.53-.23.4.12.06.56.17.8.23-.43.75-1.3.2-1.59-.05.24-.82.14-.71.46.19-.27-.85-.27-.52-.16-.35-.12-.15-.43-.88-.26-.19-1.07-1.82-2.49-.3-3.35a4.79,4.79,0,0,0-.2,1.75,3.9,3.9,0,0,0,.38-2.31c-.52,0,.24.6-.53.47.66-1.14.32-1.42.57-2.78a3.88,3.88,0,0,1-1.94.45c0,1.06-.42,2,.31,2.88-1.42-2.56-.55-5.89-.4-8.47-.3,1.46.43,2.86.12,4.07.59-.18.36-.25.53-.63.46.21.2.38.34.8-.55-.44-.41,1.26-.53,0a1.63,1.63,0,0,0-.36,1.11c.58.06.64-.13.7-.31.21,0,.15.15.17.24,1.18-.68.61-1.34.57-2.38.36,0,.37.13.17.24.87-.77.57-2.42-.12-3.52.33.27.63-.23,0-.16.2-.17.2-.43.7-.46-.24.09-.17.34-.18.55.66-.69-.21-2.5,1.1-2.78-.1-.91.25-2.1.22-3,0-.06-.35-.08-.35-.08.08-.5,1.19-.85.19-1.28.23.1.28,0,.53,0-.22-.76,0-1.57-.32-1.92,1.1.61,0,2.17.83,3,.49-.12.74.14.7-.23.31.07.28.3.7.33.18-1.25,1-2.23,1.1-3.5-.79.47.06-.12-.52-.41.82,0,.59-.44.54-.71,1.3.4,1.15-.76.72-1.26.86.52-.18-.34,0-.4-.41,0-.47-.26-1.22-.26.33-.14.41-.4.54-.63.78.13.28.34.34.72h.52c.27-1-.11-1.75-.13-2.79a3.84,3.84,0,0,0-.21,2.07c-1.3-.55.26-1.14-.85-1.85.14,0,.18.08.35.09-.19-1,.24-1.94-.48-3,.79-.53,0-.86,0-1.43-.51.55,0,1.42-.21,2.07-.09.1-.67-.07-.53.31.64-.45.08.39.52.49-.5.23-.07.17-.88.3,0-.35.58-.4.19-.71-.16,0-.32.06-.35.15-.29-.44.25-1.47-.33-2-.09,0-.19.45-.35.08-.38,0-.08.28-.18.39.46-.35.34.13.34.41-.27.13-.8-.12-.88.22-.59-.26.8-.26.37-.71-.59-.09-.28.25-.36.4-.61-.27.19-.55.36-.72-.08-.12-.22,0-.52,0,.37-.45-.06-.63.19-1.51.59.08.09.15.17.4.93,0,.09-.65.37-1.11.4.07.47.5.16.64.6.09.28-1.06.54-.39.7-.52-.75-.78-.51-1.36-.32,0-.11.26-.35.31.15-.5-.27-1.54-.15-2,.17,0,.14.1.17.16.28-1,.59-2.38-.13-2.95.68-.52.33-1.57.21-2.07-.13.07,0,.32-.19.55-.71-.3.24-1-.32-1.44-.34,0-.15.31-.71.23.12-.06.28-.21,0-.24,0-.17.47.12.71-.07.33-.9-.27-.46-.34-1a5.43,5.43,0,0,0-.59,4.3c.17,0,.14-.1.18-.16.38-.22.05.49-.36.16.13.06.27.22,0,.24,0,.1.35.08.35,0-.13.87.31,1.28,0,1.84-.38,0-.06-.34-.16-.48a1,1,0,0,0-.37.87c-.54-1.61.08-3.19-.63-4.72-.51-3.57,1.18-7.65.16-11-1,1.74-.15-.5-.15-1.2-.42.53-.85,1.44-.71.47,0-.19.29-.28.18-.64-.4.16-.37.38-.88.31.45.29.3.57,0,.87-.89-.13-.73-.95-1.39-.74-.09-.38.66-.05.53-.55,0-.09-.32-.07-.52-.08,1.16-.17-.1-.33-.34-.73C180.14,40.42,181.38,39.12,180.27,38.65Zm35.66,19.69c-.62-.48.65-1.13-.33-1.6-.3.26.38.49-.53.47.25.13.81,1,.17.56C215.48,57.91,215.59,58.51,215.93,58.34ZM212.44,68.9c-.46,1.31.78-.23.36-.31A1.55,1.55,0,0,1,212.44,68.9ZM186,76.81a.67.67,0,0,0,.51.89c0-.28.46-.72-.17-.4,0-.33.22-.32.71-.23.56.63-.23,1.47.67,1.85v.71c.27.25.16-.34.18-.47-.08-.34.22-1.25-.15-1.2,0,.12.06.29-.18.31C188,77.22,187.79,76.82,186,76.81Zm-5.24-36.63c.17.34.23.54.34.72.53,1,.13-.83-.16-1C180.93,40,181,40.17,180.78,40.18Zm1.21,1c.11.18-.5.25.17.25V41h-.7v.24A1.74,1.74,0,0,0,182,41.15Zm0,1.36c-.06-.35.8-.69.19-1C182,41.73,181.35,42.39,182,42.51Zm5.12,21.39c.59,0,.39-.46.54-.71-.57.09-.14-.26-.7-.17C187.47,63.25,187.51,63.57,187.09,63.9Zm.38-2c-.33.19,0,.69-.54.79C187.76,63,187.82,62.12,187.47,61.91Zm0-.24a1.72,1.72,0,0,0,.37-1.43c-.47-.07-.35.15-.7.15.09.42.32.7,0,1,0-.07,0-.16-.18-.17C187,61.47,187.27,61.55,187.47,61.67Zm.13,3.43c-.63,0-.41.71-.19.8C187.36,65.58,187.73,65.46,187.6,65.1Zm-.06-8.3c.09.58.46.79-.19,1,.46.24.4.8,0,.24,0,.34-.07.69.34.64-.37.22,0,.76.16,1C188,58.87,188.46,57.55,187.54,56.8Zm1.34,16.7c.34.14.22,0,.7,0,0-.19-.17-.71-.34-.56C189.49,73.42,189.33,73.32,188.88,73.5Zm1.34-7.8v-.4h-.52c0,.22.29.17,0,.32A1.7,1.7,0,0,1,190.22,65.7Zm.18-.47c-.39-.45.15-1.32-.33-1.53,0,.14.17.41-.35.32-.14.24.48.16.34.4C189.29,64.4,190,65,190.4,65.23Zm-.09,6.3c-.74.61.68.58,0,0Zm.17-.08c-.1-.27.24-.74-.16-.88C190.35,70.71,189.77,71.29,190.48,71.45Zm20.84,25.7c-.06-.33.45-.54-.16-.73C211.2,96.74,210.71,97,211.32,97.15Zm1.11-39.26c-.24.16-.35.79,0,1C212.79,58.61,212.74,58.22,212.43,57.89Zm.07,18.92c-.1.19-.22.53,0,.72C212.53,77.41,212.9,77,212.5,76.81Zm0-.4c0-1-.59-.07.17.32C212.7,76.58,212.51,76.55,212.51,76.41Zm.41,7.51c-.22-.34.47-.66-.16-.72C212.94,83.64,212,83.74,212.92,83.92Zm.5-22.11c-.32-.38.46-.81-.33-1C213.37,61.13,213,61.74,213.42,61.81Zm.17.65c-.06.22,0,1.16.16.56-.1-.35.25-.9-.15-1.12-.43.09.35.3-.18.39,0-.06,0-.15-.18-.16C213.11,62.35,213.59,62.3,213.59,62.46ZM213.43,97c1.2-1.28,1.85-2.49.75-3.26a12.36,12.36,0,0,1-1.11,3.49C213.09,97.13,213.05,97,213.43,97Zm0-10.94c0-.23-.08-.52.19-.64C212.75,85.5,213.15,85.87,213.41,86.08Zm.19-.79c0-.29.14-.65-.52-.65C213.28,84.8,213.45,85.37,213.6,85.29Zm1.67-29.83c.06-.16-.23-.17-.35-.25.24-.1.28-.39-.17-.4.13.25-.18.29-.18.48C214.92,55.29,214.79,55.51,215.27,55.46Zm-.36,24.42c.54.13.55-.52,0-.4Zm-.18.31a2.53,2.53,0,0,1,.87.18c-.58-.06-.75.49-.36.63-.06-.29.32-.11.18.08,1.21.06.15-.76.88-.54a.75.75,0,0,0-.69-.73c.34-.15.32,0,.88,0,0-.23,0-.27-.35-.16v-.24A6.46,6.46,0,0,0,214.73,80.19Zm.85,1.53c0,.35,0,.69-.53.79-.11-.47,1.17-1.37-.16-1.44.31,1-.33,2.4-.22,3.35C215.21,84,216.4,82.47,215.58,81.72Zm-.12-27c-.19.89.76.4,0,0Zm.68,37c.1.17-.23.52.16.56C216.34,92,217.1,91.74,216.14,91.71ZM185.3,66.19c.75.56,0,1.08.15,1.84C185,67.48,185.58,66.67,185.3,66.19Zm.5,2.16c.19,0,.11.16.34.16-.08-.22.19-.69.37-1-.47,0,.16.45-.53.31,0-.45-.13-.48,0-.87a.92.92,0,0,1,.15,1.75C185.91,68.62,185.82,68.5,185.8,68.35Zm.61,6.08c-.13-.47.17-1.65-.15-2.32,1.21.38,0,1.67.85,2,0,.2-.28.24-.35.39C186.59,74.46,186.49,74.28,186.41,74.43Zm.71-1a1.37,1.37,0,0,1,0-1.28A1.07,1.07,0,0,1,187.12,73.48ZM187,69.72a.51.51,0,0,0,.54-.63c.63.27,0,.52.68,1-1,.09-.56.79-.37,1.19-.53.27-.64-.32-.34-.48-.18.05-.18.18-.53.15C187.13,70.7,187.6,70.16,187,69.72Zm1.55,2.18c-.27-.24.29-.77.37-1.11.48,0-.15.43.34.41C188.67,71.07,188.81,71.65,188.55,71.9Zm24.24,8.66c0-.09.18,0,.18,0,.38,0,.08-.29.18-.4a1.29,1.29,0,0,1,.16,1.36C212.77,81.37,213.58,80.62,212.79,80.56Zm1.14-5.49c-.29-.58,0-.69-.16-1.44.43.08.76.2.7.49.18-.05.18-.18.53-.15.38.36,0,1.3.15,1.52-.38.29-.4-.24-.35-.4-.32.09-.36.73.35.64a.29.29,0,0,0-.18.32c-.55,0-.34-.23-.88-.18,0,.23.74.08.69.49-.28,0-.29-.08-.52-.08s-.36.09-.35.23c-.3-.41.1-1,0-1.36.38,0,.07.29.17.4.39-.56.49-1.07.19-1.43C213.73,74.21,214.35,75,213.93,75.07Zm.31,2.4c-.5,0,.27-.12.18-.23.51.34.7.41.51,1C214.4,78.13,215.07,77.29,214.24,77.47Zm.07-4.63c.5-.06.46.12.88.1.17-.53-.82-.54-.87-1,.53.08.32-.18.36-.32.36,0,0,.36.52.33-.69-1.17,0-2.45.05-3.19.73.58-.12,2.11.66,2.72-.9-.28-.39,1-.55,1.51C214.79,72.88,214.41,73.15,214.31,72.84Zm.95-4.85a6.46,6.46,0,0,0-.16-.8C215.89,67.28,215.45,67.72,215.26,68Zm1.17,4v-.32c.15-.28.35.7.53.17.53.12-.15.34,0,.55C216.12,72.38,217.27,72,216.43,72ZM217,60.75c.17,0,.13.1.17.16.2,0,.15-.14.18-.24s.17.09.35.09V60.6c.4.17-.48.41-.19.8C217.16,61.24,217.1,61,217,60.75Zm1,30.59c.14.23.26-.19.7-.07-.23.27-.57,2.22-.72,1.34-.46.11,0,.49,0,.64-.52-.42-.26.31-.54.47-.39-.37.37-.89.2-1.43-.42,0,.09.36-.53.23.07-.16.59-.51.18-.64C218,92.07,218.1,89.9,217.9,91.34Zm-.34-36.25c.5,0,.31.34.34.56.24,0,.15-.19.18-.31.39,0,.07.34.17.48C217.6,55.76,217.78,55.34,217.56,55.09Zm.47,3.84c2.28,2,.81,4.71,1.47,7.36-.1.13-.19,0-.18-.08A62.15,62.15,0,0,1,218,58.93Zm.29,3.92c.36.16.33.49.51.72C218.63,63.65,218.3,63.12,218.32,62.85Zm1,26.91c-.3,0-.61-.32,0-.24-.15-.28,0-.2-.16-.48C220,89.08,219.24,89.56,219.32,89.76Zm-36.21,5.61c.19,0,.12.16.35.16s.14-.09.18-.15A7.19,7.19,0,0,1,185,98.27c-.44-.07-.24-.42-.52-.56-.2,0-.15.14-.18.23-.23,0-.14-.2-.17-.32-.2,0-.15.14-.18.24C183.4,97.26,182.59,96.35,183.11,95.37Z" transform="translate(-68.84 -35.87)"/><path class="cls-1" d="M200,335" transform="translate(-68.84 -35.87)"/><path d="M219.44,325.92c.19.31,1.23,1.87,1.84,1.39C220.69,327,220.06,325.69,219.44,325.92Zm-33.25,1.59c.34.71.61-.28,1.17.16-.51,0-1.3,1.4-1.65.75-.47.43-.9.9-1.33,1.38-.2-.3.17-.63.62-1S186,328.05,186.19,327.51Zm2.36-.07c-.2.64-.87.49-1.21,1.16C187,327.93,188.15,327.69,188.55,327.44Zm2.15-1.14c.1-.31,1.45-1.23,1.7-.63C191.76,326.11,191.3,325.9,190.7,326.3Zm2.28-1.23c.36-.08.63.06,1.07-.2.16.11-.84.66-1.1,1C192.91,325.55,193.34,325.52,193,325.07ZM181.41,349c-.5-.08-.28-.89-.3-1.17A1.6,1.6,0,0,1,181.41,349Zm.46-9.15c-.17.37-.39.69-.54,1.08C181,340.47,181.06,339.68,181.87,339.82Zm3.17-8.07c.48.62-.62.3-.78,1.06C183.77,332.8,184.81,331.93,185,331.75ZM181.79,338a.87.87,0,0,0,.46.29,1.86,1.86,0,0,0-.52,1.36C181.12,339.4,181.73,338.54,181.79,338Zm3.72,16.72c.37.87,1.52.46,2.05,1.52-.58.08.07.25-.39.6.13-.45-.33-.69-.82-1S185.37,355.23,185.51,354.71Zm-3.83-8.66a7.2,7.2,0,0,1,.78,2.76A4.84,4.84,0,0,1,181.68,346.05Zm.19-1.72,0-.55c.27.16.79.1.72.52C182.22,344.09,182.35,344.32,181.87,344.33Zm1.61-2.1c-.08.42-.71.4-.75.87-.44-.15-.31-.73-.28-1.22C183.09,341.69,183,342,183.48,342.23Zm31.17,1.27c.4.23,0,.94.11,1.36C214.38,344.6,214.75,343.92,214.65,343.5Zm-.63-1.62c.26.24.59,1.52-.08,1.62.32-.41-.17-.79-.23-1.27.14,0,.18.09.35.08A3,3,0,0,0,214,341.88Zm-5.37,3.52c.38.12,0,.35,0,.51-.3.22,0-.63-.3-.22C207.94,345.5,208.45,345.39,208.65,345.4Zm-8.21-1.84c-.42-.07.54,0,0,0Zm-.47-.05h0Zm0,0h0Zm0,0h0Zm0,0h0Zm0,0Zm0,0Zm0,0h0Zm0,0Zm-.05,0Zm.05,0Zm0,0h0Zm0,.08h0v0h0Zm0-.06h0Zm0,0Zm0,.12v0Zm0-.11h0Zm0,0h0Zm0,0Zm0,0s0,0,0,0Zm0,0h0S200,343.49,200,343.49Zm0,0h0Zm24.15-7.1c-.77.16-1.51-.69-2.14-1.65a12.75,12.75,0,0,1-1.34-2.63c-.32.33.51,1.06-.13,1.28a10.1,10.1,0,0,0-1.6-2.12c.65,1.66,1,2.88,2.26,3.58-.16.06-.21-.15-.3-.26-.52.59.71,1.43,1,2.1a5.13,5.13,0,0,1-.77,1.13c.33,1.13.76,1.79.17,2.54-1.39.31-2.8.58-3,1.58-.8-.18-.95-1.83-1.93-1.24-.57-.71-.09-2-1.25-2.16a2.07,2.07,0,0,1,.29,1.89,3.35,3.35,0,0,0,.12,2.23c-1.42-.49-.52-1.65-1.07-2.57-.4.25.11.69.18.9a1.31,1.31,0,0,1-.67.23c-.34.23-.34,1.11-.57,1,0-.34-.36-.4-.28-.8a3,3,0,0,1-1.11,1.11c-.67,0-.34-.34-.57-.49-.1.47-1.07.32-1.16.86a.55.55,0,0,0-.87.12c-.41-.13-.09-.59-.25-.84-.83.26-1,.66-1.5.92-.28-.09-.25-.3-.38-.43a7,7,0,0,0-1,.44c-.25-.19-.37-.15-1.05,0,.69-.16.54-.57.26-.74-.45.16-.26.34-.64.47-.54,0-.5.12-1,.16-.05-.11-.87,0-1.07,0-.55.12-.41.12-.69.1a14.49,14.49,0,0,1-1.89.36l-.1,0h0l0,0s0,0,0,0v0s0,0,0,0v.07a.44.44,0,0,0,0-.09h0v.11a1.09,1.09,0,0,1,0-.12h0v0h0l0,0v0h0v0h0v0h0l-.05,0h0v0h0s0,0,0,0h0l0,0h0s0,0,0,0h0v0h0v0h0v0h0a.07.07,0,0,0,0,0s0,0,0,0h0s0,0,0,0,0-.08,0-.1v.08a.2.2,0,0,0,0,0h0s0,0,0,0,0,0,0,0,0,0,0,0h0v0h.07c.16,0,.3.06.19,0,.49.1,0,0,0,0,.44.11.51.09,1.38.25l-.35,0a1.7,1.7,0,0,0,.52.07c.39.08.05.08.14.14s.36.07.34.1c.3,0,.6,0,.38-.1.29,0,.41.29,0,.19.54.17.47.17.31.22a2.13,2.13,0,0,0,1.45-.05c.36.18-.33.23-.28.39.31,0,.69-.07.79-.25.5.18-.15.18-.07.3.51,0,.67-.29,1-.49.09.23-.16.41-.43.57s-.52.32-.43.64a6.15,6.15,0,0,0,2.66-1.73c.33.44-.88.69-.68,1.24.45-.21.4.06.13.2.26,0,.4-.06.41-.21.45.11.54.25.53,0,.42.31-.36.48-.2.86.31.09.16-.18.4-.15.09.2.43.39.37.61.37.11.42-.06.44-.24.49.05-.24.45-.23.69.52,0,.68-.57.78-.7.67.37-.22.58,0,1,.63,0,.78-.48.95-.65.77.47-.44.83-.31,1.43.61.19.25-.72,1.07-.35-.14.27.16.49-.1.77.68-.07.85-.86,1.05-1.48.64.58-.39,1.51-.21,2.17.56,0,.77-.47,1.08-.82.19.09.07.24.05.37.39.1.26-.48.42-.67.43.28.09.76-.05,1.18.6-.28.27.3.4.42.5-.2.64-.92,1-1.29.37.1-.06.44,0,.64a.86.86,0,0,0,.6-.72,2.33,2.33,0,0,1-.53,2.38c.69.15.83-.68,1.32-.88.37.11-.09.48-.08.7-.07-.48-.34-.18-.55.24s-.36,1-.09,1.12c.69-.42.9-1.75,1.28-2.59,0-.23.24-.18.29-.34.51-1.85.31-.67.26.37a6.28,6.28,0,0,0,1.29-2.37,5.16,5.16,0,0,1-.27,2.65,20.07,20.07,0,0,1-1.3,3.09c-.41-.4-.42-.38-.67.15-.25-.36.41-.93.5-1.38-.52.65-1.72,1.71-1.54,2.43.27-.34.84.2,1.05-.37-.42.35.46.88.29.53.19.37-.3.77.5.87-.49.94-.86,2.22-1.52,3.3a3.23,3.23,0,0,1-2.72,1.9,10.11,10.11,0,0,0,2.71-2.33,17.47,17.47,0,0,0-1.85,1.37c-.54.46-1.09.95-1.86,1.5.31.42.8-.91,1.09-.17a23.1,23.1,0,0,0-2.45,1.18,13.62,13.62,0,0,1-2.71,1.25c.57.39,1.31.35,1.7,1.35,2.12-.94,4.18-2,5-3.72a14.2,14.2,0,0,1-7.63,5.29,22.49,22.49,0,0,1-9.39.67c3.24.6,6.24-.54,8.86-1-.57-.45-.65-.19-1.49-.15.31-.55.73-.38,1.56-.79-.73.84,2.71-.53.16.5a5.32,5.32,0,0,0,2.41-.55c-.13-.59-.52-.46-.91-.37-.05-.2.23-.25.4-.36-1.79-.51-2.8.48-5,1,0-.37.19-.41.46-.26a9.82,9.82,0,0,0-3.35-.1c-1.28.12-2.63.3-3.8.49.57-.27-.39-.69-.33-.05-.33-.25-.86-.35-.83-.85.15.27.65.29,1.07.36a17,17,0,0,0-3-1c-1.09-.36-2-.86-2-1.57a18.16,18.16,0,0,1-4.77-3.23c-.09-.08-.34.16-.34.16-.69-.72-.36-1.95-1.61-1.84.29,0,.24-.14.39-.35-1.12-.9-1.82-2.29-2.4-2.68.75.2,1.29,1,1.93,1.86a4.65,4.65,0,0,0,2.28,1.9c.17-.52.68-.4.17-.8.3-.14.57.13.87-.15-1.45-1.55-1.87-3.29-2.72-5.07-.3,1,0-.19-.76-.32.69-.44.21-.9,0-1.27,1.42,0,.61-1.49,0-2.09,1,.49-.32-.43-.15-.59-.38.19-.55-.26-1.29-.1a2,2,0,0,0,.34-1.1c.81.06.36.47.55,1l.51-.11c0-1.44-.54-2.55-.5-4.12a5.53,5.53,0,0,0,0,3.12,1,1,0,0,1-.65-1.26,1.61,1.61,0,0,0-.39-1.54c.14,0,.17.13.35.14-.18-1.56.48-3,.25-4.73,1-.58.45-1.33.88-2.17-.87.62-.92,2.15-1.33,3.13-.13.14-.63-.26-.63.4.79-.62-.07.66.36.89-.55.3-.11.26-.95.39.06-.61.67-.59.39-1.18-.17,0-.34.05-.4.2a4.37,4.37,0,0,1,.34-1.67,3.84,3.84,0,0,0,.33-1.81c-.07-.06-.46.69-.38,0-.34-.16-.26.46-.42.62.65-.46.25.33.1.8-.33.16-.72-.42-1,.18-.44-.64.89-.27.75-1.17-.5-.35-.42.35-.58.59-.43-.66.52-.93.79-1.15,0-.23-.23,0-.49-.19.68-.67.39-1.16,1.41-2.5.44.41-.07.28-.21.73.86.34.65-1,1.36-1.58.26.32-.07,1-.47,1.08.44.41,1.23-1.46.82-.33,1.09-.38.14-1.56,1-2.26-.26-.19-.4.31-.64.23.66-.64,1.68-2.3,2.43-2.76.11.13,0,.22-.1.33,1.57-1.08,3.81-2.07,4.47-3.12,1.15.16,2.8-.77,3.7-1.1-.16-.09-.57.14-1,.1.34-.86,1.85-.26,2.57-.92-.11-.33-.6,0-.56-.62.14.1.46.2.46-.08.33,0-.15.5.25.68,1.73.11.84-.37,1.94-.52a8.34,8.34,0,0,0-3.85-.19,11.28,11.28,0,0,0-4.4,1.74c.07.15.23,0,.36,0,.56.15-.83.47-.44-.18-.07.17-.27.44-.43.22-.16.13,0,.38.16.31-1.57.71-2,1.54-3,1.94-.22-.32.49-.46.66-.7a2.87,2.87,0,0,0-1.61.78,12.28,12.28,0,0,1,3.88-2.88c1.44-.74,2.91-1.32,4.37-2.05a17.58,17.58,0,0,1,11.41.53,34.14,34.14,0,0,1,9.5,5.81c-1.88-3.34,1,.58,1.71,1.82-.32-1.17-1.33-2.93-.06-1.24.23.33.15.66.69,1.21.12-.53-.2-.89.29-1.08a2,2,0,0,1-1.23-1.51c.86-.42,1.94,1.18,2.13.37.62.67-.43.5.35,1.36.15.16.35,0,.54-.14-.73,1,.49.56,1.21,1.27a7.44,7.44,0,0,1,1.37,2.91C223.15,335,223.46,336,224.14,336.4ZM200,343.5l0,0h0Zm.08,0h0Zm-12.73,14c.49.56,1,.86,1.54.6-.43-.26-.71-1.15-.66-.3-.49-.35-.3-.53.13-.81,1.14.26,1.91,1.72,2.92,1.24a10.65,10.65,0,0,0,1.05.57c.48-.06-.45-.38-.62-.52-.54-.18-1.63-1.26-1.76-.92.15.14.44.23.34.45C189.11,356.42,188.54,356.14,187.36,357.48Zm35-24.33c-.5-.66-.78-1-1.08-1.37-.8-.83-.57-.39-.11.26a9.88,9.88,0,0,0,1.27,1.7C222.37,333.52,222.18,333.26,222.35,333.15Zm-2.11-1.42c-.3-.28.12-.75-.44-.37l.46.77.61-.34-.28-.48A.77.77,0,0,0,220.24,331.73Zm-1.72-2.55c.54.61.28,1.71,1.19,2C219.57,330.62,219.18,329,218.52,329.18Zm-34.94,7c.57.17.68-.57,1-.88-.58-.12.09-.46-.49-.58A1,1,0,0,1,183.58,336.2Zm2-2.82c-.47.07-.64,1-1.19.87C184.84,335.12,185.64,333.85,185.57,333.38Zm.24-.33a6.31,6.31,0,0,0,1.84-1.62c-.28-.41-.44-.05-.7-.29-.43.6-.55,1.1-1.17,1.37,0-.11.17-.22,0-.33C185.61,332.47,185.77,332.76,185.81,333.05Zm-2.47,5.27c-.59-.26-.72,1.09-.52,1.27C182.89,339,183.3,338.93,183.34,338.32Zm8.76-10.57c-.84.52-.92,1.05-1.52.65-.1.59-.91,1.1-.35.22-.52.3-1,.65-.69.92-.54-.07-1,.82-1.22,1.24.52-.43,1.31-.88,2-1.36A4.86,4.86,0,0,0,192.1,327.75ZM186,351.35c.4,0,.18-.12.61-.34-.14-.25-.64-.86-.7-.59C186.47,350.94,186.26,350.87,186,351.35Zm-.38-11.48.15-.55-.5-.15c-.1.31.22.31-.13.46A1.19,1.19,0,0,1,185.63,339.87Zm.35-.61c-.2-.74.76-1.72.47-2.17-.13.17-.09.6-.52.29-.27.28.35.39.1.68C185.32,337.77,185.66,338.87,186,339.26Zm.11,8.81c-.39,1.08.92.53,0,0Zm.13-.16c-.23-.34-.06-1.06-.5-1.16C185.79,346.92,185.46,347.92,186.22,347.91Zm13.81-4.4h0Zm0,0h0Zm0,0Zm0,0Zm0,0v0Zm0,.06Zm0,0h0Zm0,0-.05,0,.05,0Zm0,0v0Zm0-.06v0Zm0,0h0Zm0,.05Zm0,0h0Zm0,0h0s0,0,0-.11A.84.84,0,0,1,200,343.54Zm0-.07Zm0,0Zm-19.34-3.76c.55,1.16-.34,2-.19,3.48a3,3,0,0,1-.06-1.78A6.71,6.71,0,0,0,180.64,339.72Zm.16,4.07c.19,0,.13.29.36.29a4.25,4.25,0,0,1,.39-1.86c-.47-.07.12.81-.56.55a4.57,4.57,0,0,1,.13-1.6c.73.47.86,2.2,0,3.2A.62.62,0,0,1,180.8,343.79Zm4,10.22a8.93,8.93,0,0,1-1-1.65,14.28,14.28,0,0,0-1.09-1.94c.67.08,1,.74,1.25,1.41s.62,1.33,1.15,1.32c.2.28,0,.51.09.77C185,354,184.7,353.76,184.77,354Zm-.29-1.8a3.25,3.25,0,0,1-1-2A3.4,3.4,0,0,1,184.48,352.21Zm-2.26-6.09c.32,0,.52-.52.4-1.15.65.36.14.88.92,1.61-.94.34-.26,1.43.13,2-.37.6-.78-.33-.55-.68-.15.13-.1.35-.44.4C182.67,347.74,182.91,346.76,182.22,346.12Zm2.41,3.09c-.4-.26-.14-1.26-.19-1.79.46-.17,0,.7.5.51C184.32,347.92,184.72,348.74,184.63,349.21ZM200,343.53h0Zm0,0,0,0h0l0,0h0l0,0Zm0,0Zm-.05,0h0Zm.09,0h0Zm-.09,0h0Zm.05,0Zm0,0h0S200,343.51,200,343.49Zm0,0h0Zm0,0s-.06,0-.05,0h0S200.07,343.55,200,343.51Zm0,0h0Zm0,0h0Zm18.82,10.36c-.15-.13.05-.35-.16-.46s-.21.11-.3.2c.41-1.93.33-3.68.7-5.77.41.22.05.84.25,1.17.2,0,.22-.23.29-.4.21.1,0,.42,0,.65.2,0,.22-.24.3-.41A5.71,5.71,0,0,1,218.82,353.87Z" transform="translate(-68.84 -35.87)"/><path d="M264.69,156.51c.35.47,1.54,1.92,2.68,3.21s2.18,2.45,2.47,2.17c-.77-.74-1.75-2.08-2.74-3.2A8.13,8.13,0,0,0,264.69,156.51Zm-118.34-3.68c-.13,1.11,2-1.51,3-1.34a25.8,25.8,0,0,0-3.4,2.72c-1.23,1.06-2.19,2-2.17,1.43-.92.87-1.83,1.74-2.69,2.67s-1.75,1.82-2.57,2.79a3.17,3.17,0,0,1,.84-1.36c.54-.6,1.28-1.34,2.1-2.13C143.1,156,145.08,154.28,146.35,152.83Zm6.81-3.56a20.47,20.47,0,0,1-2.49,2,17.31,17.31,0,0,0-2.82,2.34c.06-.53,1-1.37,2.09-2.17.55-.41,1.15-.83,1.71-1.21S152.76,149.54,153.16,149.27Zm8.54-5.15a27.32,27.32,0,0,1,3.57-2.07c1.59-.74,3.11-1.31,3.24-1a37.77,37.77,0,0,1-3.51,1.53A34.19,34.19,0,0,0,161.7,144.12Zm9.58-4.57c1.39-.51,2.3-.53,4.19-1.28.53,0-3.82,1.62-5.1,2.39C170.52,140.3,172.14,139.81,171.28,139.55Zm-48.39,98.14a5.73,5.73,0,0,1-.83-2.24c-.2-1-.31-2-.42-2.58a16.32,16.32,0,0,1,.69,2.36C122.55,236.09,122.74,237,122.89,237.69Zm-.8-38.57c-.38,1.68-.87,3.1-1.16,4.81C120.75,202.27,121.28,199.12,122.09,199.12Zm15-33.53c0,.58-.44,1-1.1,1.68a13.31,13.31,0,0,0-2.2,2.81C132.8,170.76,136.19,166.48,137.07,165.59ZM123.4,191.81c0,.35.09.7.33.74a27.51,27.51,0,0,0-1.07,3,22.7,22.7,0,0,0-.61,2.9c-.27-.28-.08-1.4.24-2.73S123.15,192.93,123.4,191.81Zm13.84,71.68a16.71,16.71,0,0,0,1.66,2.06c.58.57,1.17,1.09,1.78,1.63l2,1.77c.71.66,1.42,1.47,2.3,2.4-1.47-.76.61.78-.05.93-.43-.95-2.07-2.4-3.77-4-.82-.82-1.66-1.66-2.37-2.48A8.8,8.8,0,0,1,137.24,263.49Zm-16-37.47c.84,3.63,1.72,7.75,2.8,12C122.61,234.67,121.79,229.94,121.27,226Zm-.33-7.36-.06-2.44c.28.72.79.51.76,2.41C121.26,217.64,121.42,218.7,120.94,218.66Zm1.74-9.65c-.21,2-.85,2-.91,4.18a5.19,5.19,0,0,1-.29-2.17c0-1,.16-2.2.24-3.3C122.42,206.66,122.26,208.24,122.68,209Zm153,6a12.14,12.14,0,0,1,.11,3.15c0,1.34-.26,2.78-.27,3.87a11.91,11.91,0,0,1,0-3.15C275.58,217.54,275.68,216.08,275.65,215Zm-1-8.69a30.48,30.48,0,0,1,.65,4.68c.08,1.93,0,3.74-.31,4a14.41,14.41,0,0,0,0-3.28c-.12-1.13-.37-2.31-.47-3.64.15.09.22.56.39.54C274.78,207.85,274.71,207.08,274.6,206.31ZM268.22,230c.33.32-.49,2.63-.74,3.72-.43,1.07-.14-.09.1-1.08s.38-1.82-.14,0C267.1,232,268,230.18,268.22,230Zm-7.2-7.89a13.29,13.29,0,0,1,.39-3.9C261.52,218.06,261.6,219.24,261,222.12ZM152.16,235.35a8.52,8.52,0,0,1,1,2,6,6,0,0,0,1.19,1.84c-.63-.09-1-.61-1.33-1.31S152.55,236.22,152.16,235.35Zm-3.72-11.47c.88-.34-.43-2.62,0-4.06a49.2,49.2,0,0,1,1.32,5.74c.51,2.28,1.06,4.53,1.36,5.49a3.62,3.62,0,0,1-.85-1.65,17.2,17.2,0,0,1-.53-2.25C149.42,225.62,149.2,224.2,148.44,223.88Zm100.48-25.36c.55,1.24-.38.81-.18,1.72-.86-.65.09-1.14-.57-2.3C248.43,198,248.65,198.51,248.92,198.52ZM150,207.18c.12-.41.39-.2.49-.71a10.86,10.86,0,0,1,0,2.21c0,.42-.12.88-.16,1.41l-.12,1.81c-.46-.15-.34-1.1-.21-2.11S150.4,207.7,150,207.18Zm1.27-3.71a4.47,4.47,0,0,1,.33-2.06l.41-1.29c.14-.41.28-.81.37-1.16a4.49,4.49,0,0,1-.34,2.16A17.75,17.75,0,0,0,151.3,203.47Zm1.4-4.82c-.22-.27.85-3.42,1.25-2.82C153.57,197.23,153,197.45,152.7,198.65Zm6.09-12c1.33-2.72,4.64-6.08,7.25-8.6a7.73,7.73,0,0,1-1.3,1.71c-.54.64-1.2,1.29-1.81,1.95s-1.18,1.31-1.6,1.91a4,4,0,0,0-.75,1.47c.16-.72-.17-.36-.61.19S159.06,186.58,158.79,186.61Zm10.53-11.35c.84.18-.63.92-.07,1.16C168.47,176.86,168.27,175.81,169.32,175.26ZM152.57,231c.93.1,1.15,3.47,1.85,3.83C154.33,236.18,153,232.13,152.57,231Zm15.75-54.49c0,.51-1.62,1.44-2.2,2.18C166.05,178.12,167.59,176.73,168.32,176.49ZM158,241.17c0-1,1.75,1.93,2.22,2.65-.48,0-.83-.57-1.17-1.16S158.41,241.38,158,241.17Zm44.74-75.61c.87.33.55.47.33.9-.37,0-.29-.24-.36-.38-2.2,0-2.06.32-4.19.15-1.23-.15,2.94-.39,0-.35a3.7,3.7,0,0,1,2.11-.21A4.25,4.25,0,0,0,202.7,165.56Zm-43.62,22.18a6.61,6.61,0,0,0,1-1.22,5.89,5.89,0,0,1,1.19-1.45c0,.13-.19.42-.36.75a10.64,10.64,0,0,1-.57,1.11C159.87,187.62,159.41,188.16,159.08,187.74Zm-6.5,15.65c.49.06.29,1,.1,1.94C152.11,205.35,152.6,204.06,152.58,203.39ZM200,167.23c-1.74.82-5.61.38-1.11.22C199.18,167.44,199.49,167.17,200,167.23Zm-47.13,42.62c.25-.21.48,1,.59,2.59.08.82.16,1.76.19,2.7s.07,1.89.09,2.74a13.21,13.21,0,0,1-.27-1.5c-.09-.63-.24-1.36-.29-2.12C153,212.73,152.94,211.08,152.87,209.85Zm87.62-19.19a2.12,2.12,0,0,1-1.28-.94c-.34-.52-.74-1.21-1.37-2.1a7.76,7.76,0,0,1,1.23,1.18C239.56,189.41,240.12,190.11,240.49,190.66ZM215.82,258.6c-.52-.46,1.22-.75,1.87-1.11C217.82,257.91,216.7,258.25,215.82,258.6Zm-.85-.28a2.3,2.3,0,0,1-1.11.7,7,7,0,0,1-1.46.3c-.35,0-.49,0-.15-.16S213.43,258.8,215,258.32ZM225,252.56c-.44.36-.61.18-1,.42-2,1.27-2.29,1.19-1.79.86a9.46,9.46,0,0,1,1.18-.68A5.59,5.59,0,0,1,225,252.56Zm-63.94-59.35a6.88,6.88,0,0,1-1,2.59A5.65,5.65,0,0,1,161.08,193.21Zm121.58-2.53c-.81,0-2.24-3.31-4-7-.81-1.85-1.79-3.74-2.57-5.45s-1.56-3.14-2-4.06c-.12.65,1.91,3.77,1.18,3.8a35,35,0,0,0-2.3-4.08c-.74-1.15-1.51-2.35-2.79-4.19,3.19,5.61,5.11,10.15,7.49,13.6-.17.06-.42-.69-.66-1.13a9.07,9.07,0,0,0,1.2,3.56c.7,1.47,1.45,3.1,1.88,4.3a26,26,0,0,1-.12,3.4c1.16,4.3,1.9,6.89,1.61,9.47a3.85,3.85,0,0,0-1.85,1.28c-.52.72-.72,1.89-.72,4.05a5.29,5.29,0,0,1-.62-1.71c-.22-.8-.44-1.76-.65-2.62-.43-1.72-1-3-1.31-2.06-.3-.94-.48-2-.73-3l-.69-3.12c-.55-2-1.09-3.81-2-4.73a25.39,25.39,0,0,1,1.45,4.52c.3,1.48.52,2.93.7,4.46.32,3.07.61,6.37,1.22,10.87-.82-1.46-1-3.57-1.33-5.93-.11-1.19-.28-2.43-.48-3.68a22.44,22.44,0,0,0-.82-3.69,5.48,5.48,0,0,0,.32,2.22c.22.91.5,1.84.62,2.38-.08.47-.28.68-.59.69-.19.94.26,5.71,0,5.25-.13-1.85-.58-2.38-.73-4.55a23.91,23.91,0,0,1-.58,5.8c-.71-.51-.49-2.23-.86-3.3a3.12,3.12,0,0,1-.38,2.24,4.93,4.93,0,0,0-.38,2.85c-.48-2-.79-1.55-.85.59-.45-1.09-.37-4.5-.79-6.48a7.94,7.94,0,0,0-.55,3c-.13,1.22-.19,2.55-.42,3.6a41.41,41.41,0,0,1-.67-4.2,19.09,19.09,0,0,0-.75,3.74c-.42-2.19-.52-2.07-1.13-1,.65-1.5,0-6-.8-8.7-.32.94.34,3.54,0,4.67-.57-.3-.4.93-1,.63-.29-2.05-1.09-1.74-1.56-3.28-.47.57-.18,1.44-.78-.36-.14.33-.32,1.58-.61,2.27s-.62.83-1.12-1c-.66-.17-.27,1.45-.11,2.87-.56-1.58-1.32-2.7-1.94-4.39a4.48,4.48,0,0,0,.09,2.44c.21,1,.44,2.09.57,3-.61-.35-.79-2.06-1.2-3.51-.46,1.79-1.8.23-1.19,4.2-.44,0-.53-1.41-.67-2.56-.58.31-.68,1.61-1.1-.27-.08.94-.71.95-.6,2.22a15.72,15.72,0,0,1-.32-3.36c-.35-1.09-.26,1-.3,1.33-.07-.28-.17-2.43-.61-4.66a29.69,29.69,0,0,0-.77-3.18,7.16,7.16,0,0,0-.9-1.93c-.38.51.55.93.67,2a8.12,8.12,0,0,1-1.6-3c-.18.68.62,2.63.43,3.34-.24-.17-.62-1-.47-.28A5.42,5.42,0,0,0,249,197a10.46,10.46,0,0,1-1.64-2.15c-.61.28-.11,1.69-.1,2.58.73-.25.43,1.8.38,2.73-.5-.13-1.3-.5-.8,1-.46-.2-.35-1.62-.52-2.21s-.17.21-.5.17a64.88,64.88,0,0,0-3.17-6.16c-1.13-2-2.32-3.92-3.59-5.81-.57-.92-1.27-1.79-1.93-2.71s-1.43-1.8-2.25-2.65a39.28,39.28,0,0,0-5.43-5,41.33,41.33,0,0,0-6.64-4.1,37.81,37.81,0,0,0-7.66-2.71,9.83,9.83,0,0,0-2-.83,12.45,12.45,0,0,0-1.59-.41c-.51-.1-1-.2-1.63-.36s-1.3-.3-2.17-.6c-1.49-.45-1.12-.38-.36-.27a15.1,15.1,0,0,0,1.85.36c-.08-.3-1.74-.64-3.71-.79-1-.12-2.05-.09-3-.18a20,20,0,0,1-2.51-.11c-2.76.05-4,.17-4.3.15s.38-.1,1.51-.24,2.72-.21,4.24-.17h1.12l1,.07c.65.05,1.23.05,1.65.12.67-.7-2.09-.14-1.44-.82.42,0,.84-.05,1.26-.05l1.26.08c.42,0,.85.06,1.28.12l1.31.23c1.8.29,3.75.82,6.16,1.45a12.86,12.86,0,0,0-2.24-1c-.86-.3-1.84-.5-2.86-.74,1.07,0,.65-.23-.08-.39s-1.75-.2-1.82,0a32.28,32.28,0,0,0-10.16-.84,51.59,51.59,0,0,0-12.39,2.32,9.48,9.48,0,0,0,2-.41,4.17,4.17,0,0,1,1.83-.05c-1.68.85-4.37,1.68-6.68,2.73.08.39.47.37,1.23.1-.19.13-1.22.27-2.46.57a7,7,0,0,0-3.41,1.78c-.52.17,0-.16-.16-.32-.6.24-.57.45-.51.66-.44-.16-1.13.25-1.77.61s-1.25.7-1.51.47a39.3,39.3,0,0,0,5.27-2.76c.74-.43,1.44-1,2.27-1.4l1.31-.74,1.54-.72c-1.8.17-5.28,1.91-6.74,2.77.25.13.59.08,1.19-.19a3.41,3.41,0,0,1-1.55,1.16c.95-1.06.15-.58-1,.08a17,17,0,0,1-1.75,1.06c-.55.29-1,.5-1.23.35-.21.41-1.27,1.82.37.59-1.11,1.17-3.27,2.71-4.87,4.2.18-.44,0-.49-.51,0a14.46,14.46,0,0,1,4.55-4.07c-.34-.3-1.55.94-1.66.29-.86.55.14.73-1,1.32-.87-.37.77-1.23.65-1.75,1.28,0,1.64-1.55,2.67-2.39.07-.55-2.33,1.38-1,.64-.39.26-.8.46-1.28.76a9,9,0,0,0-1.56,1.38c.86-1.63-2.66,1.94-3.08,2.47a56.34,56.34,0,0,0-10.85,12.87,41.25,41.25,0,0,0-5.54,14.34c-.17-.22-.23-.58-.07-1.24a8,8,0,0,0-.78,2.6c-.11,1-.1,1.94.17,2.11-.34-.07-.56,1.71-.63,3.2s-.06,2.7-.21,1.48c.06-.67-.05-1-.26-1.21.43-2.93.67-5.67,1.29-8.7a19,19,0,0,0-1.38,6.48c-.17,2.11-.1,4.15-.45,6.22-.67-.8.25-2.27-.46-2.45a7.74,7.74,0,0,0,.47-2.13c.1-.84.24-1.79.31-2.83a30.74,30.74,0,0,1,1.34-6.59c.32,0,.23.4.11.87.45-.05.57-1.89,1-2.63-.27,0-.47.9-.65,1.48-.09-1.88.5-3.42,1.71-6.69-.24.14-.71.93-.49.23-1.52,2.08-1.26,4.46-1.83,6.7-1.79,2.84-1.72,5.94-2,9.54,0,.56-1,.05-.56-1.3-.71.81-.35,4.08-.54,6.61.6-.54.08-1.36.39-2.48.34.45,0,2.38.49,2.48a8.41,8.41,0,0,0,0,2.61,11.14,11.14,0,0,0,.77,2.23c-.1.85-.19.5-.3,0s-.21-1.1-.45-.75c-.19.1-.19.61-.1,1.19a12.51,12.51,0,0,1,.24,1.68,3.57,3.57,0,0,1-.61-2c-.31.75.31,3.15.49,4.53,1,.14-.69-2.11.22-1.71,1.36,6.38,1.93,9.88,4.1,11.48.17-.2-.23-1-.43-1.56-.24-1.27.69,1.26.9,1.8-.45-.09-.1,1.28-.63-.17a27,27,0,0,0,1.17,3.06,19.38,19.38,0,0,0,2,3.46c-.15.08-.36-.36-.55-.61-.75,0,.37,1.9-.51,1.23a23.14,23.14,0,0,0,3.08,4.41,3.8,3.8,0,0,0-.85-1.43,10.88,10.88,0,0,1-1-1.31c.25-.25.64.26,1.05.95a17.94,17.94,0,0,0,1.32,1.92c.08-.35-.23-.91-.73-1.62s-1.12-1.64-1.71-2.65c2.24,3,4.54,5.89,7,8.55a48.37,48.37,0,0,0,7.42,6.82,7.62,7.62,0,0,1-1.83-1.2c-.71-.51-1.44-1.13-2.21-1.58a7.72,7.72,0,0,0,1,1.26c.46.43,1,.88,1.62,1.35.07-.2-.5-.58-.87-.9a46,46,0,0,0,7.77,5.38c0-.43-1.89-1.1-2-1.53a5.19,5.19,0,0,1,1.86.78,4.89,4.89,0,0,0,1.52.68c1,.39-.63.6.41,1a2.7,2.7,0,0,1,1.63.59,9.88,9.88,0,0,0,1.13.57,5.9,5.9,0,0,0,1.51.33c.37.39.05.31-.19.49L184,266a9.59,9.59,0,0,0,3.39.52c.12-.3-.4-.47-.23-.77a20.3,20.3,0,0,0,3.59.58c-3.75-1.17-7.73-2.05-11.62-4.3-1.43.21-2.15,0-4.78-1.22-1.23-.81-.42-1.29-2.4-2.27-.06.21.54.52.92.81a45.19,45.19,0,0,1-5.78-4.34,3.4,3.4,0,0,1,2.25,1.22,9.86,9.86,0,0,0,2.13,1.59c.25-.25-1.11-.88-1.53-1.29a4,4,0,0,1,2.06,1.21c1,.46-.38-1.09,1.27.2a13.77,13.77,0,0,0-2.39-2c.65,0,2.26,1.47,3.33,2,.21-.45-1.05-1.28-2.17-2s-2.08-1.54-1.38-1.61a9.19,9.19,0,0,0-2.19-1.52c-.15.43,1.59,1.25,1.58,1.7a20.55,20.55,0,0,1-5-4.24,62.53,62.53,0,0,1-4.47-5.74c2.6,3.17,5.75,6.5,7.45,8.16.32-.48-.59-1.22-1.63-2.17-.71-.9-.41-1.21.12-.13,2.51,2.32,4.29,3.89,6.05,5.35a26,26,0,0,0,6.41,3.82c-1.48-1.17,2.47.83,3.55,1.32.57-.41-1-.68-1.62-1a67.77,67.77,0,0,0,11.76,3.41,33.59,33.59,0,0,0,12.55,0,6.59,6.59,0,0,0,3.23-.3,8.72,8.72,0,0,1,1.36-.34,6.28,6.28,0,0,1,1.76-.12c0-.38,1.36-.68,3-1.07.81-.24,1.7-.45,2.48-.75a7.54,7.54,0,0,0,1.88-1c-.77-.35-2.75.64-3.49.21a30.83,30.83,0,0,1-3.77,1.49c.37.2,1.21-.08,1.88-.15-.3.57-1.87.54-2.52.66,0-.16.32-.25.28-.42a39.9,39.9,0,0,1-4.78.37c-3.41,0-.71.15,1.08-.16a61.72,61.72,0,0,0,9.91-2.63,71.06,71.06,0,0,0,9.72-4.36c.49-.33,1.11-.89,1.32-.72l-1.22.86c-.47.24-1.06.52-1.66.89s-1.25.77-1.91,1.15a.86.86,0,0,0-.3,1c.59-.26.55-.47.48-.68.43.21,1.54-.51,2.21-.72.75-.57-.57-.22-1.15.31-.06-.41,1.53-1.05,2.13-1.56-.49,1.1,1.65,0,3-1.08-.86-.07-1.37,1-2.46,1.15a33.08,33.08,0,0,1,7-4.66,12.35,12.35,0,0,1,1.21-1.54l.78-.79,1-1.17c-.13.5.11.29.4.34,1.83-2,2.43-3.49,4-5.7-.05.41-.11.83-.18,1.27.25-.08.37-.48.56-1a6.25,6.25,0,0,1,.93-1.75c-1.22,2.68,1.69-1.43,1.1-1.61.65-.94.43-.27.8,0-.18-1.28,1.67-3.62,2.27-5.46-.06-.12-.44.49-.46.67a7.53,7.53,0,0,1,.26-1.32,7.44,7.44,0,0,1,.4-1.18,12.14,12.14,0,0,1,1.16-2,13.89,13.89,0,0,1,1.33-1.52c.4-.44.78-.79,1.06-1.05a9.38,9.38,0,0,1-.77,2.32c.43-.35,1-.23,1.19-1.8.91.38,1.11.94,1.74-1.32.31-.17,0,1.7.42.52.45.34-.41.59-.46,1.2.22,0,.29.16.25.5.5-.27.73-2.29,1.34-1.91l-.39,1.69a32.93,32.93,0,0,0,2.63-7.14c-.36,2.65-1.55,6.74-2.16,9.53.27.17.65-.61.51.14.22,0,.41-.3.58-.8s.28-1.14.42-1.72c.28.16.27.76.14,1.53s-.45,1.69-.67,2.53c1-2.36,1-2.17.07,1a13.32,13.32,0,0,0,.94-1.12,4.17,4.17,0,0,0,.4-1,10.67,10.67,0,0,0,.38-2.11c.24,1.2.19,1.13-.19,2.81a12.41,12.41,0,0,0,1.11-2.79,11.93,11.93,0,0,1,.78-2c-.06.13.33,2.23.6-.36.42.57-.44,2-.59,2.78a16,16,0,0,0,.94-1.72c.29-.57.6-1,1-.8-.2.69-.46,1.15-.72,1.82-.15,1.31.67-.89.81-1.31.39.29-.45,2.36-.56,3.36.32-.48.45-.33.22.56a14.46,14.46,0,0,0,.85-2,6.7,6.7,0,0,0,.44-2.23c.17-.29.16.77-.1,1.9s-.58,2.36-.85,2.43c.35.84.21,1-.48,3a15.08,15.08,0,0,0,1.67-2.62,23.75,23.75,0,0,0,1.39-3.84c.11,1.52-1.17,4.13-1.75,6.34.39-.85.8-1.66,1.18-2.57a25.5,25.5,0,0,0,1-3.17c.3,1-.68,2.65-.95,4a23.34,23.34,0,0,0,1.41-3.67c.36-1.39.78-2.86,1.08-4.21a31.2,31.2,0,0,1-1.73,7.27c-.9,2.53-1.9,5.29-3,8.48a52.66,52.66,0,0,0,4.52-10.8,90.69,90.69,0,0,0,2.6-11.59c.16,3.56-1.28,6.95-2.06,12,1-2.58.46-.14-.18,1.58a5.67,5.67,0,0,0,.93-2.51c.41.23.37,1.21.7-.94.15,1.85-1.17,4.42-1.76,7.27.33,0,.6-1.71.92-2a20.2,20.2,0,0,1-.58,3.77c.4,0,.81-1.18,1.13-2.5.31-.23,0,.66-.38,1.81s-1.05,2.54-1.31,3.37a13.85,13.85,0,0,0,1.51-3.09c.46-1.26.8-2.51,1-3a5.69,5.69,0,0,1-.52,2.88,20.39,20.39,0,0,0-1.16,3.52c1-1.08,2.08-4.28,2.54-5.59.47,1.67-1.9,5.69-2.95,9,.75-.14,1.79-4.58,2.44-3.88a37.84,37.84,0,0,1-1.47,4.29c1.32-1.59,2.85-5.81,3.82-9.5a8.66,8.66,0,0,1-.32,2.35c-.22,1-.62,2-1,3.16-.8,2.21-1.78,4.47-2.24,6,1-.86,2.09-3.52,3-5.62.17.16-.21,1.05-.44,1.69.49-.08,1-2.67,1.51-3.79.25.83-.81,3.53-1.66,5.61,1.31-2.1,0,1,0,1.3a23.25,23.25,0,0,0,1.65-3.32c.52-1.31,1-2.68,1.5-3.72.39,0-.6,2-.79,2.87a12.48,12.48,0,0,0,1.62-3.87,21.73,21.73,0,0,1-1.12,4.89,47,47,0,0,1-2.56,5.89c.45-.17,1-1.13,1.59-2.22a25.68,25.68,0,0,1,1.55-3c.4,0-.71,2-1,2.89.44-1.85-.24-.31-1.16,1.62s-2,4.31-1.69,4.44a21.2,21.2,0,0,0,1.39-2.35c.45-.92.91-1.94,1.38-3,.87-2.15,1.69-4.45,2.36-6.37.26-1,.5-.94.72-1.69,1.19-4,1.29-4.8,1.19-4s-.69,3.16-1.21,5.26a52.39,52.39,0,0,0,3.3-10.62,48.78,48.78,0,0,1-2.24,10.78,79.52,79.52,0,0,1-5.33,12.79c-.19-.87-.19-.81-1.34,1.39.06-.94,2-3.82,2.61-5.6-.77,1.49-2.07,3.66-3.3,5.69-.63,1-1.21,2-1.71,2.87a12.72,12.72,0,0,0-1.09,2.14c1-1.58,1.39-.58,2.56-2.77-1.25,1.76-.37,2.21-.18,1.34-.19.93-1.66,2.87-.28,2.05a97.22,97.22,0,0,1-7.81,11.47c-3,3.68-6.45,6.77-9.66,8.37a63.48,63.48,0,0,0,10.23-9.45c-1.2,1.19-2.35,2.21-3.38,3.23l-3.14,2.86a88.6,88.6,0,0,1-7.36,5.89c.16.2,1.09-.51,1.91-1.18s1.57-1.26,1.45-.68c-1.88,1.32-3.48,2.26-4.87,3.18s-2.66,1.65-4,2.42a74.37,74.37,0,0,1-10.51,5.17c1.61,0,4.1-.9,4.29.2a85.36,85.36,0,0,0,10.83-6,46,46,0,0,0,8.36-7A67.13,67.13,0,0,1,242,287.82a75.49,75.49,0,0,1-16.22,7.35,79.83,79.83,0,0,1-17.53,3.48,88.56,88.56,0,0,1-16.66-.18c11.88,1.46,23.2-.73,32.66-3.34a5.94,5.94,0,0,0-2,.14c-.7.16-1.56.43-3.09.68,1.48-.8,2.88-.9,6.11-2-1.59.82.85.11,2.5-.4.82-.25,1.43-.48,1.25-.4s-1.18.45-3.59,1.3A43.23,43.23,0,0,0,234,291.5c.16-.73-1.22-.1-2.64.38,0-.23,1-.57,1.71-.91a71.6,71.6,0,0,0-8.24,2.32A81.57,81.57,0,0,1,214.55,296c.29-.42.91-.54,1.85-.51-3.15.18-7.9.8-13,1.06a123.53,123.53,0,0,1-14.82-.05c2.09-.07-1.79-.86-1.26-.17-1.35-.43-3.42-.81-3.62-1.35a20.76,20.76,0,0,0,4.33.92c-2.69-.73-7.57-1.56-11.91-3s-8.14-3.07-8.9-4.16c-6.6-2.72-14.44-8-19.85-12.81a.63.63,0,0,0-.7-.14,36.45,36.45,0,0,1-3.51-3.95,12.79,12.79,0,0,0-3.46-3.21c.66.42.37,0,.39-.35a61.86,61.86,0,0,1-5.5-6.68c-.79-1.07-1.5-2.07-2.09-3s-1.13-1.6-1.53-2.14c1.69,1.68,3.92,5.24,6.74,8.71a46.71,46.71,0,0,0,8.84,8.85c-.39-1,1.24.15-.86-1.78.6.16,1.82,1.33,2.26,1.13a64.51,64.51,0,0,1-8.7-10,97.53,97.53,0,0,1-6.92-11.26c1.12,3.5-.45-.81-1.86-2.41.53-.69-.95-3.31-1.78-5.12,1.14,1,.84-.42.08-2.54s-1.84-5-2.51-6.7c1.87,3.39-.89-2.32-.74-2.87-.3.53-.87-1.69-1.6-1.48a37,37,0,0,0-.32-4.81,2.83,2.83,0,0,1,.75,1.83,31.59,31.59,0,0,0,.56,3.38l.52-.11c-.35-1.74-.57-3.42-.86-5.06s-.49-3.27-.62-4.92l-.24-2.5-.13-2.57c0-.87-.07-1.76,0-2.67s0-1.85,0-2.81c-.11,1.1-.19,2.36-.26,3.71s0,2.76,0,4.16.19,2.79.29,4.07.34,2.44.5,3.41a11.55,11.55,0,0,1-.92-3,28.88,28.88,0,0,1-.25-3.3c-.06-1.14,0-2.32-.08-3.53a30.35,30.35,0,0,0-.4-3.79c.14.11.16.6.34.6-.06-7.33,1.54-14.41,3.12-21.89a28.32,28.32,0,0,0,2.08-4.94,37.81,37.81,0,0,1,1.92-5.13,33.41,33.41,0,0,0-1.66,3.14c-.52,1.18-1,2.46-1.49,3.76s-.87,2.66-1.26,4-.75,2.59-1.09,3.78c-.26.7-.56-.61-1.06,2.23.71-1.63.56-.9.27.33a10.93,10.93,0,0,0-.44,3.34c-.8,1.68-.29,1.25-1.24,2.26a11.84,11.84,0,0,1,.67-2.79,9.1,9.1,0,0,0,.44-2.58,2,2,0,0,0-.58,1.13,44.58,44.58,0,0,1,1.71-7.25c.83-2.79,1.85-5.58,2.33-7.52-.05-.13-1.45,3.18-.56.44-.3-.23-.9,2-1.25,2.83,1.34-2.48,0,1-.66,3-.55.91-.54-1-1.35,1.53,0-2.07,1.35-1.82,2-5.21-.34-.81-.88,1.73-1.33,2.83a6.94,6.94,0,0,1,.88-3c.47-.88,1-1.62,1.35-2.19.27-.89-.3.14-.49-.2.82-1.63,1.35-2.75,2-4.26.31-.77.73-1.59,1.25-2.62l.89-1.68,1.21-2c.23.8-.53,1-1.37,2.8,1,0,2.5-4.38,4.77-7.25.05.66-1.67,3.42-2.49,4.27.12.77,4.61-6.74,2.07-2.33,2.81-3,2.69-5.32,5.8-8.69-.16-.07-.52.31-.89.72a4.2,4.2,0,0,1-1,1c.62-.75,1.42-1.68,2.29-2.71s1.86-2.14,2.85-3.23a51.53,51.53,0,0,1,5.49-5.27c.1.14-.48.59-.82.94a94,94,0,0,1,10.38-7.39c3.56-2.21,6.84-4,8.68-5.23,2-.56,4.82-1.68,7.67-2.67l2.12-.75,2-.65,1.86-.59,1.59-.43a10.55,10.55,0,0,0-1.66.32c-.76.2-1.67.44-2.58.62a14.4,14.4,0,0,1,4.91-1.51l1.56-.3,1.56-.26a25.62,25.62,0,0,0,2.83-.68c-.31-.33-2.41.27-2-.39.51,0,1.73,0,1.86-.3,1.31-.12-.84.58.71.61a35.44,35.44,0,0,0,5-.56,9.13,9.13,0,0,1,3.07-.5,59.65,59.65,0,0,0-15.2,1.33,66.52,66.52,0,0,0-17.59,6.41c.09.14.75-.23,1.21-.39.89-.19,0,.2-.77.5s-1.56.49-.52-.27c-.4.34-1.41,1-1.68.86-.69.41-.41.6.16.31a55.11,55.11,0,0,0-7,4.17c-.92.61-1.74,1.24-2.58,1.83l-2.62,1.79c-.09-.17.42-.61,1.07-1.07s1.44-.95,1.86-1.31a29.71,29.71,0,0,0-5.72,3.94,69.37,69.37,0,0,1,15.64-10.61,105.61,105.61,0,0,1,17.24-6.78c13.8-3.73,29.65-3.18,44,1.52a87.16,87.16,0,0,1,20,9.6,96.91,96.91,0,0,1,16.25,13.22c-2.21-2.75-3.25-3.87-3.35-4.05a10.78,10.78,0,0,1,1.9,1.85c.58.65,1.26,1.41,2,2.21l2.14,2.61c.72.88,1.36,1.79,2,2.58s1.13,1.52,1.53,2.1c-2.19-3.78-6.77-9.59-1.77-3.49.89,1.18,1.21,1.94,2.94,4.22-.45-1.33-1.51-2.74-.79-2.61a17.86,17.86,0,0,1-2.4-2.61c-.73-.92-1.44-1.88-2.13-2.92.64.08,2.08,1.39,3.18,2.54s2,2,1.66,1.1c1,1.22.95,1.43,1,1.73s.1.67,1.34,2.3c.47.62.58.28.81.24a2.52,2.52,0,0,0,1,2.14,15.06,15.06,0,0,1,2.49,2.74,51.16,51.16,0,0,1,4.91,10C280.5,185.56,281.63,189,282.66,190.68ZM172.81,172.79a9.87,9.87,0,0,1,3.34-2,14,14,0,0,0,1.83-.86,5.9,5.9,0,0,0,1.51-1.11c-1.34.26-2,1.36-2.36.53-.49.47-3.77,3-2.35,1.46C174.3,171.27,171.91,173,172.81,172.79Zm-26.32,43.87c-.07,3.43.18,3.08.25,1.86s.3-3.34.06-3.52A13.55,13.55,0,0,1,146.49,216.66Zm-.05,57.57a33.65,33.65,0,0,0,3.2,2.67,7.68,7.68,0,0,0,2.35,1.24c-.87-.65-1.9-1.6-2.51-2.14s-.78-.68,0,.38c-2-1.62-1.74-1.77-.94-1.73.5.33,1,.7,1.51,1.09s1.05.76,1.57,1.16c1,.81,2.11,1.61,3.16,2.34a27.6,27.6,0,0,0,3,1.93,8.74,8.74,0,0,0,2.49,1.05l2.35,1.36,2.42,1.25c1.77.58-2.28-1.29-3.12-1.86-.56-.29-1.35-.75-2.21-1.26L157.1,280c-1.66-1.11-3-2.08-2.91-1.79.72.55,1.85,1.24,1.87,1.55-1.58-1.26-2.93-2.28-4-3.19s-2-1.54-2.73-2C147.84,273.61,147,273.51,146.44,274.23ZM277.72,179c-.64-1.25-1.23-2.19-1.7-3s-.87-1.51-1.3-2.14c-2.2-3.27-1.35-1.76.11.66.69,1.24,1.51,2.73,2.2,4a27.29,27.29,0,0,0,1.35,2.43C278.09,180.2,277.58,179.22,277.72,179ZM273,172.6c-.8-1.18-.63-2-1.15-1.6.58.93,1.1,1.88,1.65,2.82l.61-.34-1-1.72C272.88,171.86,272.93,172.23,273,172.6Zm-6.19-9.2c1.83,2.25,2.71,5,4.7,7C270.55,168.56,267.92,163.71,266.79,163.4ZM127.82,183c.35,0,.8-.82,1.29-1.79s1.08-2.1,1.58-2.92c-.42.2-.22-.25,0-.7s.43-.9,0-.71A18.75,18.75,0,0,1,127.82,183Zm7.81-13.08a9.1,9.1,0,0,0-1,1.11l-1,1.52a9.56,9.56,0,0,1-1.77,2.21c-.2,1.23.51.34,1.43-1A36.39,36.39,0,0,0,135.63,169.87Zm1.06-1.48c2.06-2.24,4.32-4.88,7.33-8.09,0-.65-1.08.63-1.34.4-1.09,1.17-1.88,2.24-2.68,3.21s-1.54,1.88-2.48,2.81c.26-.4.74-.95.61-1.07A9.35,9.35,0,0,0,136.69,168.39Zm-11.61,23.29c-.26-.25-.73,1-1.13,2.48a14.51,14.51,0,0,0-.6,3.36C123.82,195.12,124.47,194.32,125.08,191.68Zm39.71-47c-1,.52-1.76,1-2.43,1.38l-1.69,1.06a6,6,0,0,1-2.34,1c-1.29,1.33-4.86,3.72-1.54,1-2.24,1.44-4.4,3-3.79,3.07a16.21,16.21,0,0,0-3.05,2.28c-1.08,1-2.16,2.12-2.89,2.89a87.88,87.88,0,0,1,8.82-6.75C159.18,148.38,162.49,146.33,164.79,144.7Zm-32,108c.8.68.17-.16.61-.35-.74-1.25-2.58-4.58-2.24-3.5C133,251.77,132.48,251.21,132.79,252.67Zm-6.31-56.25c.23-.95.52-1.89.78-2.83l-.5-.15c-.46,1.55,0,1.22-.64,2.28C126.35,195.75,126.41,196.08,126.48,196.42Zm1.11-3.34a19.28,19.28,0,0,1,.76-2.8c.31-1,.74-2.11,1.16-3.13a35.74,35.74,0,0,0,1.77-4.6c-.48.93-1.06,2.75-1.3,2-.86,1.62,0,1.23-.79,2.87-.33-.16-.8.84-1.08,2.11A20.62,20.62,0,0,0,127.59,193.08Zm.54,45.51a13.69,13.69,0,0,0,.61,2.46c.21.5.39.7.46.65S129.11,240.49,128.13,238.59Zm0-.6c-.72-1.85-1.28-5.27-1.86-6.17C126.45,232.77,127.06,237.16,128.11,238Zm122.45-3.3c-.55,1.65-1.52,2.42-1.33,3.54a21.91,21.91,0,0,1,1-2A2.31,2.31,0,0,0,250.56,234.69Zm-77.89-65.95a11.87,11.87,0,0,0-4.17,2.74A14.87,14.87,0,0,0,172.67,168.74Zm-10,84.43c.32.37.79.89,1.28,1.38a8.31,8.31,0,0,0,1.47,1.12c-.22-.21-.64-.71-1.14-1.2A5.87,5.87,0,0,0,162.71,253.17Zm-1.45-1.48c-3.55-3.9-.68.22,1.27,1.07C162,252.2,161.78,252.22,161.26,251.69Zm34.23,15.95a7.66,7.66,0,0,1-2.36-.32c-.66-.15-1.15-.21-1.32.08C194.09,267.5,194.58,268.54,195.49,267.64Zm-37.17-84.83a10,10,0,0,1,1.89-2.29,4.4,4.4,0,0,0,1.31-2C160.45,180,158.18,182.27,158.32,182.81Zm-1.78,2.74c-.33.45-1.14,1.7-1.6,2.53s-.61,1.25.21-.05a29.12,29.12,0,0,1,1.7-2.58,10.16,10.16,0,0,0,1.36-2.21c-.67.11-.61,1.46-1.34,1.54.15-.28.46-.65.33-.76C156.45,184.85,157,184.89,156.54,185.55Zm91.76,49.12c-3.58,5.62-7.45,10-9.09,13.62a64.48,64.48,0,0,0,9.86-14.62C248.82,234.26,248.58,235,248.3,234.67Zm-41.82,32.24a9.71,9.71,0,0,1-3.24.13C203.61,267.84,205.46,267.36,206.48,266.91Zm-4,.18c-.72,0-1.54,0-2.17.08s-1.08.15-1.08.48C200,267.52,202.89,267.2,202.43,267.09ZM185.24,166.26c.75-.16.68-.44,1-.66.54.07,1.93-.23,1.87-.66-1.15.38-1.45.17-2.35.43C185.89,165.71,184.82,165.88,185.24,166.26Zm-8.73,93.92c.39-.11-.12-.51-.68-.81s-1.17-.52-1.05-.14C175.35,259.57,175.92,259.89,176.51,260.18Zm1.32.88c.34-.19.5-.58,1.09-.48-.23.22.26.64.9,1a3.57,3.57,0,0,0,1.83.54c-1.34-.44-.38-.49.42,0,.32-.52-.52-.9-1.29-1.17s-1.46-.54-.87-.67c-2-.77-2.69-1.07-3.42-.88-.49-.62.35-.18.41-.78-1-.55-1.16-.61-.84-.05l-1-.58a6.53,6.53,0,0,0,1.21,1.56C176.79,260,177.35,260.54,177.83,261.06Zm7.23,1.91a19.83,19.83,0,0,1,2.27.71,2.92,2.92,0,0,1,1.37.78,20.92,20.92,0,0,1-4-1.47c-1.32-.59-2.43-1-2.76-.39,2.4.73,5.19,1.65,8,2.33A38.24,38.24,0,0,0,198,266l-6-1.53A45.24,45.24,0,0,0,185.06,263Zm3.64-97.43a8.51,8.51,0,0,0-2,.54c-.32.14-.34.23-.17.24a2.5,2.5,0,0,0,.91-.18A4.5,4.5,0,0,0,188.7,165.54ZM230.55,254c.58-.55,2.09-1.44,2-1.85C231.66,252.83,230,253.14,230.55,254ZM120.77,199.49a24.85,24.85,0,0,1-.25,3.25c-.11,1.08-.26,2.17-.44,3.31a48.19,48.19,0,0,0-.61,7.7,24.49,24.49,0,0,1-.08-3.48c.08-1.25.18-2.55.34-3.84l.55-3.74C120.5,201.52,120.68,200.43,120.77,199.49Zm-1,16.75c.2.15.15,1.22.38,1.22a43,43,0,0,1,.51-8c-.23-.11-.26.75-.29,1.51s0,1.43-.37.92c0-1.76.13-2.69.16-3.57a22.71,22.71,0,0,1,.39-3.21,8.19,8.19,0,0,1,.23,2.21c0,1,0,2.29,0,3.62s-.07,2.76-.18,4.1a27.53,27.53,0,0,1-.37,3.63A6.1,6.1,0,0,1,119.82,216.24Zm14.73,43.89a66.39,66.39,0,0,1-4.39-7.1c-1.58-3-3.11-6.19-4.18-8.54a13.32,13.32,0,0,1,1.74,2.77c.31.61.63,1.28.95,2l1.05,2.11c1.4,2.84,3,5.56,4.06,6.35.84,1.26.8,1.74,1.42,2.72C134.86,260.24,134,259.19,134.55,260.13Zm-3.29-6.61a38.83,38.83,0,0,1-2.14-3.71c-.45-.84-.83-1.77-1.21-2.64a18,18,0,0,1-.89-2.43c.48.85,1.37,2.58,2.16,4.36S130.85,252.62,131.26,253.52Zm-9.39-27c.35,0,.29-2,0-4.89a13.65,13.65,0,0,1,.67,3.14c.09.6.18,1.27.33,2a22.19,22.19,0,0,0,.74,2.51c-.89.94.71,6,1.82,8.87.08,1.06-.29.55-.62-.41a13.19,13.19,0,0,1-.71-3c-.07.42.2,1.39-.18,1.31C123.37,233.87,123,229.69,121.87,226.55ZM127.44,242a18.28,18.28,0,0,1-1.22-3.7l-.93-4.4c.37-.38.74,3.17,1.13,2.77-.39-.33-.29.53,0,1.71S127.22,241,127.44,242Zm51.42,21.65c-.41-.22-.13-.25.07-.16.22-.32-1.28-.66-1.78-1a63.48,63.48,0,0,1,6.47,2.4C182.68,265.17,179.34,263,178.86,263.63Zm-21-18.16c-.48-.55-.86-1-1.17-1.43s-.54-.83-.8-1.24c-.53-.83-1-1.8-2-3.38.52.11,1.11.45,1.79,1.75,0-.32-.3-.89.06-.95A36,36,0,0,1,158,243.5l1.19,1.75a11.5,11.5,0,0,0,.88,1.06c.61,1.36-1.07-.62-1.47-1.36,0,.62,2,3.13,2.19,2.29a4.25,4.25,0,0,0,.9,1.31c-.21.58-1-.6-1.18,0,.78.82.74-.21,2.11,1.32-.13.27-.48-.07-.66.07s.09.61.58,1.11c-1.68-1.23-3.13-3.65-4.42-5.23.24-.26.93,1.09,1.37,1.49-.77-1.24-1.44-2.42-2.12-3.43a23,23,0,0,0-1.83-2.59C155.27,242,157.85,244.73,157.91,245.47Zm8.38,8.61c-.5.23-.29-.61-.79-.92a11.15,11.15,0,0,1,4,2.63c-.28.11-1.15-.62-1.92-1.21S166.19,253.44,166.29,254.08Zm-13.64-18.5c.32-.5.65.32,1,0a6.1,6.1,0,0,0-1.31-2.21,4.5,4.5,0,0,1-1.23-1.89c.64.21,0-.92-.16-1.61.35,0,.59,1.64,1,1.33a27.18,27.18,0,0,1-2.33-8.29,57.74,57.74,0,0,1-.3-7.12c.39,1.4.48,4,.85,6.57s.93,5.15,1.76,6.41c-.31-.25-.4-.08-.36.35A7.76,7.76,0,0,0,152,231l.44,1.26.53,1.29c.33.86.7,1.66.95,2.28C153.15,235.51,153.37,236.91,152.65,235.58Zm-3.29-23.73c0-.28,0-.9.07-1.64s.14-1.58.15-2.3c.37.25.38.89.25,1.64S149.52,211.18,149.36,211.85Zm3.71,19c-.15-.48-.35-1-.47-1.45-.1-.67.17.12.49.72s.57,1.07.24-.15c.71.37.36,1.63.88,2.5C153.37,232.66,153.82,230.4,153.07,230.81Zm11.51-49.88c.11.12-.23.43-.4.67.19.09.59-.4.91-.71,0,.15-.13.4,0,.52l.52-.55c-.22.85-1.73,1.07-2.67,2.67A11.12,11.12,0,0,1,164.58,180.93ZM228,253.69c.8-.75-.86.28-.71-.36a31.64,31.64,0,0,0,4.21-2.88c1.5-1.18,2.47-2,1.07-.53.33,0,.75-.4,1.15-.84s.72-1,.95-1.25c-.95,1.73,1.22-.86,1.88-1.3-.81,1.61-3.11,2.88-4.85,4.65.17.42,1.21-1.2,1.19-.35-.62.47-2.22,1.19-2.39,1.83.07-.57-1.86.75-3.24,1.54-.66.44-1.19.73-1.19.73l.45-.26C226.83,254.48,227.3,254.15,228,253.69Zm-40.3-85.76c.08.51-1.42.72-2.41,1.07.17.17.93-.14,1.47-.26.06.38-1.49.5-2.07.83,0-.34.49-.65,1.12-.91S187.18,168.2,187.7,167.93ZM171.8,176c-1.53,1.83-3.23,3.67-4.94,5.66s-3.46,4.14-5.09,6.48a40.7,40.7,0,0,0-7.05,16.11c-.22.52-.18,0-.09-.39a45.28,45.28,0,0,1,5.68-15A45.86,45.86,0,0,1,171.8,176Zm-12.15,13.42a23.63,23.63,0,0,1-1.23,3.11c-.19.12-.06-.38.21-1.05A10.14,10.14,0,0,1,159.65,189.45Zm61.41,66.85c.24.21-1,1.19-.95.49-1.09.66-.8.38-1.89,1C218,257,220.29,256.83,221.06,256.3Zm51.2-1.53c-.07-.22.5-1.17.3-1.29s-.47.63-.76,1a78.79,78.79,0,0,0,3.78-10.13c.57-1.73,1-3.55,1.54-5.43s1-3.89,1.41-6.05a4.57,4.57,0,0,1-.13,2,18,18,0,0,0-.45,2.38c.23,0,.46-1.07.68-1.77.18.25-.28,1.56-.51,2.47.22,0,.46-1.07.69-1.77a52.35,52.35,0,0,1-1.89,8.48A42.21,42.21,0,0,1,272.26,254.77Z" transform="translate(-68.84 -35.87)"/></svg>