<svg width="393" height="393" viewBox="0 0 393 393" fill="none" xmlns="http://www.w3.org/2000/svg">
<g clip-path="url(#clip0)">
<path d="M292.396 324.849H99.879C93.867 324.849 88.954 329.697 88.954 335.774C88.954 341.786 93.803 346.699 99.879 346.699H292.461C298.473 346.699 303.386 341.85 303.386 335.774C303.321 329.697 298.473 324.849 292.396 324.849Z" fill="white"/>
<path d="M292.396 277.01H99.879C93.867 277.01 88.954 281.858 88.954 287.935C88.954 293.947 93.803 298.86 99.879 298.86H292.461C298.473 298.86 303.386 294.011 303.386 287.935C303.321 281.859 298.473 277.01 292.396 277.01Z" fill="white"/>
<path d="M196.137 45.834C170.278 45.834 149.139 66.909 149.139 92.832C149.139 118.691 170.278 139.765 196.137 139.765C221.996 139.765 243.135 118.69 243.135 92.767C243.135 66.844 221.996 45.834 196.137 45.834ZM196.137 117.851C182.367 117.851 171.054 106.538 171.054 92.768C171.054 78.998 182.302 67.685 196.137 67.685C209.972 67.685 221.22 78.998 221.22 92.768C221.22 106.537 209.907 117.851 196.137 117.851Z" fill="white"/>
<path d="M258.521 163.362C218.634 147.847 173.769 147.847 133.883 163.362C120.824 168.469 112.097 181.463 112.097 195.75V240.097C112.032 246.109 116.946 251.022 122.958 251.022H269.382C275.394 251.022 280.307 246.174 280.307 240.097V195.75C280.307 181.463 271.58 168.469 258.521 163.362ZM258.521 229.236H133.883V195.814C133.883 190.513 137.051 185.6 141.77 183.79C176.614 170.279 215.79 170.279 250.635 183.79C255.354 185.665 258.522 190.449 258.522 195.814V229.236H258.521Z" fill="white"/>
<path d="M313.083 0H131.491C123.087 0 115.2 3.232 109.253 9.18L57.018 61.414C51.071 67.362 47.838 75.248 47.838 83.652V360.985C47.838 378.375 61.996 392.532 79.385 392.532H313.147C330.537 392.532 344.694 378.374 344.694 360.985V31.547C344.501 14.158 330.343 0 313.083 0ZM112.032 37.236V64.258H85.01L112.032 37.236ZM322.715 116.816H282.117C276.105 116.816 271.192 121.665 271.192 127.741C271.192 133.753 276.04 138.666 282.117 138.666H322.715V158.06H307.846C301.834 158.06 296.921 162.908 296.921 168.985C296.921 174.997 301.77 179.91 307.846 179.91H322.715V361.049C322.715 366.415 318.384 370.746 313.083 370.746H79.192C73.891 370.746 69.56 366.415 69.56 361.114V86.044H122.958C128.97 86.044 133.883 81.196 133.883 75.119V21.721H313.083C318.384 21.721 322.715 26.052 322.715 31.353V116.816Z" fill="white"/>
</g>
<defs>
<clipPath id="clip0">
<rect width="392.533" height="392.533" fill="white"/>
</clipPath>
</defs>
</svg>
